<svg width="65" height="65" viewBox="0 0 65 65" fill="none" xmlns="http://www.w3.org/2000/svg">
<g filter="url(#filter0_b_4374_1426)">
<rect x="0.442139" y="0.5" width="64" height="64" rx="4" fill="white" fill-opacity="0.04"/>
<path d="M33.9358 18.9779C33.3058 19.0499 32.3338 19.2479 31.7758 19.4099C30.5878 19.7519 27.7798 21.1739 27.3658 21.6239C27.1138 21.8939 27.1318 21.9839 27.4738 22.4159L27.8698 22.9019L28.7698 22.2899C29.8678 21.5339 31.9738 20.6879 33.5038 20.3999C34.2058 20.2559 35.3578 20.2019 36.5638 20.2739C39.8218 20.4359 42.4138 21.5879 44.7898 23.9099C46.5358 25.6379 47.7058 27.6899 48.2998 30.0659C48.4798 30.7859 48.5338 30.8399 49.1098 30.8399C49.8658 30.8399 49.9018 30.6599 49.3618 28.9319C48.7138 26.8079 47.6518 25.0079 46.0858 23.3519C43.7098 20.8319 40.8658 19.3919 37.4998 18.9779C35.8258 18.7619 35.5738 18.7619 33.9358 18.9779Z" fill="url(#paint0_linear_4374_1426)"/>
<path d="M20.022 22.1639C18.924 23.1359 19.428 24.9179 20.85 25.1879C21.534 25.3139 22.452 24.8999 22.74 24.3599C22.902 24.0719 23.118 23.9999 23.874 23.9999C24.738 23.9999 24.864 24.0539 25.62 24.8099L26.448 25.6199L26.88 25.1699L27.312 24.7199L26.34 23.7299L25.368 22.7399H24.162C23.046 22.7399 22.902 22.6859 22.416 22.1999C21.678 21.4799 20.814 21.4619 20.022 22.1639Z" fill="url(#paint1_linear_4374_1426)"/>
<path d="M34.2597 25.8001C34.2597 26.5021 34.2237 26.5561 33.4317 26.8801C32.4057 27.3301 32.2977 27.3301 31.7937 26.8441C31.4157 26.5021 31.3437 26.4841 30.9117 26.7181C30.6417 26.8441 30.1557 27.3121 29.7957 27.7441L29.1657 28.5181L29.6697 29.0401L30.1737 29.5801L29.8497 30.3361C29.4357 31.2721 29.1297 31.5601 28.4817 31.5601C28.0497 31.5601 27.9777 31.6501 27.8697 32.2801C27.7977 32.6761 27.7977 33.3241 27.8697 33.7201C27.9777 34.3501 28.0497 34.4401 28.4817 34.4401C29.1297 34.4401 29.4357 34.7281 29.8497 35.6641L30.1737 36.4201L29.6877 36.9421L29.1837 37.4641L29.5977 38.0401C30.0477 38.6341 31.0557 39.4801 31.3437 39.4801C31.4337 39.4801 31.6497 39.3181 31.8297 39.1201C32.2257 38.6701 32.4057 38.6701 33.4317 39.1201C34.2237 39.4441 34.2597 39.4981 34.2597 40.2001V40.9201H35.7897H37.3197V40.2001C37.3197 39.4981 37.3557 39.4441 38.1477 39.1201C39.1737 38.6701 39.3537 38.6701 39.7497 39.1201C39.9297 39.3181 40.1817 39.4801 40.3077 39.4801C40.6137 39.4801 41.5497 38.6881 42.0177 38.0221L42.3957 37.5001L41.9457 36.9601L41.4957 36.4381L41.8017 35.5921C42.1617 34.6741 42.4137 34.4401 43.0977 34.4401C43.6737 34.4401 43.7997 34.1701 43.7997 33.0001C43.7997 31.8301 43.6737 31.5601 43.0977 31.5601C42.4137 31.5601 42.1617 31.3261 41.8017 30.4081L41.4957 29.5621L41.9457 29.0401L42.3957 28.5001L42.0177 27.9781C41.5497 27.3121 40.6137 26.5201 40.3077 26.5201C40.1817 26.5201 39.9297 26.6821 39.7497 26.8801C39.3537 27.3301 39.1737 27.3301 38.1477 26.8801C37.3557 26.5561 37.3197 26.5021 37.3197 25.8001V25.0801H35.7897H34.2597V25.8001ZM37.6077 29.0221C40.3257 30.2461 41.0457 33.8641 38.9937 35.9701C38.1117 36.8881 37.1037 37.3201 35.8257 37.3201C33.3237 37.3201 31.4877 35.5021 31.4877 33.0001C31.4877 31.2361 32.4957 29.6521 34.0797 28.9681C34.9617 28.5901 36.7077 28.6081 37.6077 29.0221Z" fill="url(#paint2_linear_4374_1426)"/>
<path d="M35.1596 29.8321C35.1596 29.9761 34.9256 30.3361 34.6196 30.6241C34.2056 31.0381 34.0796 31.3441 34.0796 31.8661C34.0796 32.7841 34.4756 33.3061 35.3576 33.5761C36.1136 33.7921 36.4196 34.1521 36.1136 34.4581C35.8796 34.6921 35.3396 34.4761 35.3396 34.1521C35.3396 33.9901 35.1236 33.9001 34.7096 33.9001C34.1516 33.9001 34.0796 33.9541 34.0796 34.3681C34.0796 34.6381 34.2956 35.0521 34.6196 35.3761C34.9256 35.6641 35.1596 36.0241 35.1596 36.1681C35.1596 36.3301 35.3576 36.4201 35.7896 36.4201C36.2396 36.4201 36.4196 36.3481 36.4196 36.1321C36.4196 35.9881 36.6716 35.6461 36.9596 35.3941C37.4096 35.0341 37.4996 34.8181 37.4996 34.1881C37.4996 33.2161 37.1216 32.7121 36.2216 32.4241C35.4296 32.1901 35.1236 31.8121 35.5376 31.5421C35.9336 31.3081 36.0776 31.3441 36.1856 31.7401C36.2576 32.0101 36.4376 32.1001 36.8876 32.1001C37.4456 32.1001 37.4996 32.0461 37.4996 31.5781C37.4996 31.2181 37.3376 30.9121 36.9596 30.6061C36.6716 30.3541 36.4196 30.0121 36.4196 29.8681C36.4196 29.6521 36.2396 29.5801 35.7896 29.5801C35.3576 29.5801 35.1596 29.6701 35.1596 29.8321Z" fill="url(#paint3_linear_4374_1426)"/>
<path d="M16.6017 26.1418C15.6477 27.0958 15.9717 28.6258 17.2317 29.0398C17.9697 29.2738 18.9957 28.9318 19.3197 28.3378C19.6437 27.7258 20.1297 27.8878 20.8317 28.8598L21.4797 29.7598H23.3697H25.2597V29.1298V28.4998H23.7477H22.2357L21.5877 27.5998C20.9937 26.7898 20.8677 26.6998 20.2377 26.6998C19.7517 26.6998 19.4457 26.5918 19.2837 26.3758C18.6537 25.4758 17.3937 25.3678 16.6017 26.1418Z" fill="url(#paint4_linear_4374_1426)"/>
<path d="M25.6196 29.13C25.6196 29.724 25.6556 29.76 26.2496 29.76C26.8436 29.76 26.8796 29.724 26.8796 29.13C26.8796 28.536 26.8436 28.5 26.2496 28.5C25.6556 28.5 25.6196 28.536 25.6196 29.13Z" fill="url(#paint5_linear_4374_1426)"/>
<path d="M17.934 31.56C16.89 32.19 16.908 33.81 17.934 34.44C18.744 34.944 19.392 34.89 20.094 34.26L20.724 33.72H23.262H25.8V33V32.28H23.262H20.724L20.094 31.74C19.374 31.11 18.744 31.056 17.934 31.56Z" fill="url(#paint6_linear_4374_1426)"/>
<path d="M48.6602 33.0002V34.2602H49.2902H49.9202V33.0002V31.7402H49.2902H48.6602V33.0002Z" fill="url(#paint7_linear_4374_1426)"/>
<path d="M48.4079 35.4658C48.3539 35.6458 48.2279 36.1498 48.1199 36.5998C47.9939 37.0498 47.5259 38.1298 47.0759 39.0118C45.6359 41.8198 43.0439 44.0158 39.8399 45.1858C38.6159 45.6178 38.2379 45.6718 35.8799 45.6718C33.3959 45.6898 33.1979 45.6718 31.7039 45.1318C30.8219 44.8258 29.5979 44.2138 28.9319 43.7998L27.7619 43.0258L27.2939 43.4938L26.8079 43.9618L27.2579 44.3218C27.9059 44.8798 30.2459 46.0678 31.5059 46.4818C35.0699 47.6878 39.6059 47.1838 42.9899 45.2038C44.8619 44.1058 47.3099 41.5678 48.2459 39.7498C48.9839 38.3278 49.7399 36.1498 49.7399 35.5018C49.7399 35.0338 48.5519 34.9978 48.4079 35.4658Z" fill="url(#paint8_linear_4374_1426)"/>
<path d="M20.8317 37.1397C20.1297 38.1117 19.6437 38.2737 19.3197 37.6617C18.9957 37.0677 17.9697 36.7257 17.2317 36.9597C15.9717 37.3737 15.6477 38.9037 16.6017 39.8577C17.3217 40.5777 18.1857 40.5777 19.0137 39.8397C19.4637 39.4437 19.8237 39.2997 20.2917 39.2997C20.8677 39.2997 21.0117 39.1917 21.5877 38.3997L22.2357 37.4997H23.7477H25.2597V36.8697V36.2397H23.3697H21.4797L20.8317 37.1397Z" fill="url(#paint9_linear_4374_1426)"/>
<path d="M25.6196 36.8702C25.6196 37.4642 25.6556 37.5002 26.2496 37.5002C26.8436 37.5002 26.8796 37.4642 26.8796 36.8702C26.8796 36.2762 26.8436 36.2402 26.2496 36.2402C25.6556 36.2402 25.6196 36.2762 25.6196 36.8702Z" fill="url(#paint10_linear_4374_1426)"/>
<path d="M25.53 40.5598C24.882 41.2258 24.756 41.2798 23.856 41.2798C23.064 41.2798 22.848 41.2078 22.506 40.8118C22.236 40.5238 21.858 40.3258 21.372 40.2538C20.724 40.1818 20.544 40.2358 20.04 40.6858C19.536 41.1358 19.446 41.3338 19.446 41.9998C19.446 42.6658 19.536 42.8638 20.04 43.3138C20.544 43.7638 20.724 43.8178 21.372 43.7458C21.858 43.6738 22.236 43.4758 22.506 43.1878C22.866 42.7738 23.046 42.7198 24.09 42.7198H25.296L26.304 41.7478L27.33 40.7578L26.898 40.3078C26.646 40.0558 26.412 39.8398 26.34 39.8398C26.286 39.8398 25.908 40.1638 25.53 40.5598Z" fill="url(#paint11_linear_4374_1426)"/>
</g>
<defs>
<filter id="filter0_b_4374_1426" x="-31.5579" y="-31.5" width="128" height="128" filterUnits="userSpaceOnUse" color-interpolation-filters="sRGB">
<feFlood flood-opacity="0" result="BackgroundImageFix"/>
<feGaussianBlur in="BackgroundImageFix" stdDeviation="16"/>
<feComposite in2="SourceAlpha" operator="in" result="effect1_backgroundBlur_4374_1426"/>
<feBlend mode="normal" in="SourceGraphic" in2="effect1_backgroundBlur_4374_1426" result="shape"/>
</filter>
<linearGradient id="paint0_linear_4374_1426" x1="30.9502" y1="30.8399" x2="48.455" y2="20.8008" gradientUnits="userSpaceOnUse">
<stop stop-color="#00FFE1"/>
<stop offset="1" stop-color="#6E5DF6"/>
</linearGradient>
<linearGradient id="paint1_linear_4374_1426" x1="20.7408" y1="25.6199" x2="26.6862" y2="22.0072" gradientUnits="userSpaceOnUse">
<stop stop-color="#00FFE1"/>
<stop offset="1" stop-color="#6E5DF6"/>
</linearGradient>
<linearGradient id="paint2_linear_4374_1426" x1="30.4797" y1="40.9201" x2="45.5442" y2="36.268" gradientUnits="userSpaceOnUse">
<stop stop-color="#00FFE1"/>
<stop offset="1" stop-color="#6E5DF6"/>
</linearGradient>
<linearGradient id="paint3_linear_4374_1426" x1="34.6496" y1="36.4201" x2="38.0994" y2="35.8922" gradientUnits="userSpaceOnUse">
<stop stop-color="#00FFE1"/>
<stop offset="1" stop-color="#6E5DF6"/>
</linearGradient>
<linearGradient id="paint4_linear_4374_1426" x1="17.5836" y1="29.7598" x2="24.076" y2="25.334" gradientUnits="userSpaceOnUse">
<stop stop-color="#00FFE1"/>
<stop offset="1" stop-color="#6E5DF6"/>
</linearGradient>
<linearGradient id="paint5_linear_4374_1426" x1="25.8296" y1="29.76" x2="27.019" y2="29.396" gradientUnits="userSpaceOnUse">
<stop stop-color="#00FFE1"/>
<stop offset="1" stop-color="#6E5DF6"/>
</linearGradient>
<linearGradient id="paint6_linear_4374_1426" x1="18.5981" y1="34.7798" x2="24.3465" y2="30.5086" gradientUnits="userSpaceOnUse">
<stop stop-color="#00FFE1"/>
<stop offset="1" stop-color="#6E5DF6"/>
</linearGradient>
<linearGradient id="paint7_linear_4374_1426" x1="48.8702" y1="34.2602" x2="50.1411" y2="34.0657" gradientUnits="userSpaceOnUse">
<stop stop-color="#00FFE1"/>
<stop offset="1" stop-color="#6E5DF6"/>
</linearGradient>
<linearGradient id="paint8_linear_4374_1426" x1="30.6299" y1="47.1304" x2="48.2689" y2="36.813" gradientUnits="userSpaceOnUse">
<stop stop-color="#00FFE1"/>
<stop offset="1" stop-color="#6E5DF6"/>
</linearGradient>
<linearGradient id="paint9_linear_4374_1426" x1="17.5836" y1="40.3955" x2="24.0963" y2="35.9778" gradientUnits="userSpaceOnUse">
<stop stop-color="#00FFE1"/>
<stop offset="1" stop-color="#6E5DF6"/>
</linearGradient>
<linearGradient id="paint10_linear_4374_1426" x1="25.8296" y1="37.5002" x2="27.019" y2="37.1362" gradientUnits="userSpaceOnUse">
<stop stop-color="#00FFE1"/>
<stop offset="1" stop-color="#6E5DF6"/>
</linearGradient>
<linearGradient id="paint11_linear_4374_1426" x1="20.76" y1="43.7722" x2="26.6731" y2="40.1443" gradientUnits="userSpaceOnUse">
<stop stop-color="#00FFE1"/>
<stop offset="1" stop-color="#6E5DF6"/>
</linearGradient>
</defs>
</svg>
