<svg width="65" height="64" viewBox="0 0 65 64" fill="none" xmlns="http://www.w3.org/2000/svg">
<g filter="url(#filter0_b_4374_1465)">
<rect x="0.442139" width="64" height="64" rx="4" fill="white" fill-opacity="0.04"/>
<path d="M25.9714 17.252C25.4804 17.4125 25.0508 17.7901 24.8336 18.262C24.7251 18.4932 24.7062 18.5923 24.7109 18.9793C24.7109 19.3616 24.7298 19.4702 24.8336 19.692C25.0603 20.1922 25.504 20.5651 26.028 20.7019C26.3821 20.7916 26.5709 20.7916 26.925 20.7019L27.2036 20.6264L27.6426 21.0653L28.0816 21.5042V23.7932V26.082L27.7889 26.2944C27.3971 26.5776 26.5992 27.3704 26.3113 27.7668L26.08 28.0878H23.7856H21.496L21.0569 27.6488L20.6179 27.21L20.6981 26.908C20.9059 26.0962 20.5046 25.2467 19.7351 24.8692C19.4471 24.7276 19.3857 24.7134 18.9703 24.7134C18.5832 24.7134 18.484 24.7323 18.2527 24.8408C17.875 25.0155 17.5351 25.3458 17.351 25.7234C17.2141 26.0065 17.2 26.0726 17.2 26.4832C17.2 26.8985 17.2141 26.9599 17.3557 27.2477C17.7334 28.017 18.5832 28.4181 19.3904 28.2105L19.6926 28.135L20.193 28.6211C20.4668 28.8948 20.7878 29.1638 20.9059 29.2252L21.1183 29.3384L23.2568 29.3526C24.4276 29.3573 25.3907 29.3809 25.3907 29.3951C25.3907 29.4092 25.3293 29.6168 25.2538 29.8528C25.1264 30.2398 24.9941 30.8628 24.9564 31.2168L24.9422 31.3442L22.8036 31.3489H20.6698L20.4668 31.0516C19.6548 29.8481 17.9411 29.9756 17.3274 31.2876C17.2188 31.5188 17.2 31.6179 17.2 32.0049C17.2 32.3919 17.2188 32.491 17.3274 32.7222C17.724 33.567 18.6209 33.9776 19.4943 33.7039C19.8861 33.5812 20.2213 33.3263 20.4668 32.9582L20.6651 32.6608H22.8036H24.9375L25.0177 33.147C25.065 33.416 25.1594 33.8124 25.2255 34.0342C25.2916 34.256 25.3624 34.4826 25.3765 34.5392L25.4001 34.643L23.2616 34.6572L21.1183 34.6713L20.9059 34.7846C20.7878 34.846 20.4668 35.115 20.193 35.3887L19.6926 35.8748L19.3904 35.7992C18.5832 35.5916 17.7334 35.9928 17.3557 36.762C17.2141 37.05 17.2 37.1112 17.2 37.5266C17.2 37.9136 17.2188 38.0127 17.3274 38.244C17.5021 38.6215 17.8326 38.9612 18.2102 39.1453C18.4935 39.2822 18.5596 39.2964 18.9703 39.2964C19.3857 39.2964 19.4471 39.2822 19.7351 39.1406C20.4999 38.7631 20.9059 37.9088 20.6981 37.1018L20.6179 36.7998L21.0569 36.3609L21.496 35.922L23.8092 35.9267H26.1224L26.3585 36.2571C26.6323 36.644 27.4301 37.4275 27.8125 37.6964L28.0816 37.8805V40.1931V42.5056L27.6426 42.9444L27.2036 43.3833L26.9014 43.3032C26.0894 43.0955 25.2349 43.5013 24.862 44.2659C24.7204 44.5538 24.7062 44.6198 24.7062 45.0304C24.7062 45.4457 24.7204 45.5071 24.8572 45.7903C25.0414 46.1678 25.3812 46.4981 25.7589 46.6728C25.9903 46.7813 26.0894 46.8002 26.4765 46.8002C26.892 46.8002 26.9533 46.786 27.2413 46.6444C28.0108 46.2669 28.4121 45.4174 28.2044 44.6104L28.1288 44.3084L28.6198 43.8034C29.3893 43.0152 29.328 43.2701 29.3563 40.7358C29.3704 39.556 29.394 38.5932 29.4176 38.5979C29.4365 38.6026 29.6536 38.6734 29.9039 38.7489C30.1541 38.8292 30.579 38.9283 30.8433 38.9707C31.2635 39.0415 31.3343 39.0651 31.3579 39.15C31.3721 39.2067 31.3816 40.1695 31.3721 41.2974L31.3627 43.3456L31.1832 43.4447C30.7206 43.7043 30.4137 44.0865 30.2721 44.5774C30.0455 45.3749 30.4609 46.2622 31.2352 46.6444C31.5232 46.786 31.5845 46.8002 32 46.8002C32.4154 46.8002 32.4768 46.786 32.7648 46.6444C34.1007 45.9884 34.1291 44.1809 32.8167 43.4447L32.6372 43.3456L32.6278 41.2974C32.6184 40.1695 32.6278 39.2067 32.642 39.15C32.6656 39.0651 32.7364 39.0415 33.1566 38.9707C33.4209 38.9283 33.8411 38.8292 34.0819 38.7536C34.3274 38.6781 34.5492 38.612 34.5728 38.6026C34.6059 38.5932 34.6295 39.3388 34.6436 40.7358C34.672 43.2701 34.6106 43.0152 35.3801 43.8034L35.8711 44.3084L35.7956 44.6104C35.5878 45.4174 35.9891 46.2669 36.7586 46.6444C37.0466 46.786 37.108 46.8002 37.5234 46.8002C37.9105 46.8002 38.0096 46.7813 38.241 46.6728C38.6187 46.4981 38.9585 46.1678 39.1427 45.7903C39.2796 45.5071 39.2937 45.4457 39.2937 45.0304C39.2937 44.6198 39.2796 44.5538 39.138 44.2659C38.765 43.5013 37.9105 43.0955 37.0985 43.3032L36.7964 43.3833L36.3573 42.9444L35.9183 42.5056V40.1931V37.8805L36.1874 37.6964C36.5698 37.4275 37.3676 36.644 37.6414 36.2571L37.8775 35.9267H40.1907L42.504 35.922L42.943 36.3609L43.382 36.7998L43.3065 37.0782C43.2168 37.4322 43.2168 37.621 43.3065 37.9749C43.4434 38.4988 43.8164 38.9377 44.3168 39.1736C44.5434 39.2775 44.6472 39.2964 45.0296 39.2964C45.4404 39.2964 45.5064 39.2822 45.7897 39.1453C46.1674 38.9612 46.4978 38.6215 46.6725 38.244C46.7811 38.0127 46.8 37.9136 46.8 37.5266C46.8 37.1112 46.7858 37.05 46.6442 36.762C46.2665 35.9928 45.4168 35.5916 44.6095 35.7992L44.3073 35.8748L43.8069 35.3887C43.5331 35.115 43.2121 34.846 43.094 34.7846L42.8816 34.6713L40.7478 34.6572C39.5723 34.6524 38.6092 34.6241 38.6092 34.6052C38.6092 34.5816 38.6753 34.3646 38.7508 34.1239C38.8311 33.8785 38.9302 33.4443 38.9774 33.1612C39.0624 32.6515 39.0672 32.642 39.1899 32.6468C39.2607 32.6515 40.2237 32.6562 41.3379 32.6608L43.3537 32.6703L43.5425 32.9629C44.3215 34.1664 46.0635 34.0295 46.6725 32.7222C46.7811 32.491 46.8 32.3919 46.8 32.0049C46.8 31.6179 46.7811 31.5188 46.6725 31.2876C46.5261 30.9713 46.2193 30.6268 45.9408 30.4616C45.1335 29.9897 44.1044 30.2256 43.5567 31.0091C43.4623 31.146 43.3773 31.2781 43.3679 31.3017C43.3584 31.33 42.4709 31.3442 41.2057 31.3442L39.0577 31.3489L39.0436 31.2168C39.0058 30.8675 38.8736 30.2445 38.7461 29.8528C38.6706 29.6168 38.6092 29.4092 38.6092 29.3951C38.6092 29.3809 39.5723 29.3573 40.7478 29.3526L42.8816 29.3384L43.094 29.2252C43.2121 29.1638 43.5331 28.8948 43.8069 28.6211L44.3073 28.135L44.6095 28.2105C45.4168 28.4181 46.2665 28.017 46.6442 27.2477C46.7858 26.9599 46.8 26.8985 46.8 26.4832C46.8 26.0726 46.7858 26.0065 46.6489 25.7234C46.4648 25.3458 46.1248 25.0155 45.7472 24.8408C45.5159 24.7323 45.4168 24.7134 45.0296 24.7134C44.6425 24.7134 44.5434 24.7323 44.3168 24.8361C43.8164 25.0721 43.4434 25.511 43.3065 26.0348C43.2168 26.3888 43.2168 26.5776 43.3065 26.9316L43.382 27.21L42.943 27.6488L42.504 28.0878H40.2143H37.92L37.6886 27.7668C37.4007 27.3704 36.6028 26.5776 36.211 26.2944L35.9183 26.082V23.7932V21.5042L36.3573 21.0653L36.7964 20.6264L37.0749 20.7019C37.429 20.7916 37.6178 20.7916 37.9719 20.7019C38.4959 20.5651 38.9396 20.1922 39.1663 19.692C39.2701 19.4702 39.289 19.3569 39.289 18.9793C39.2937 18.564 39.2796 18.5027 39.1427 18.2195C38.9585 17.842 38.6187 17.5116 38.241 17.337C38.0096 17.2284 37.9105 17.2096 37.5234 17.2096C37.108 17.2096 37.0466 17.2237 36.7586 17.3653C35.9891 17.7429 35.5878 18.5923 35.7956 19.3994L35.8711 19.7014L35.3801 20.2064C35.111 20.4801 34.842 20.801 34.7806 20.919L34.6672 21.1267L34.6531 23.2645C34.6436 24.9824 34.6295 25.4024 34.5776 25.3836C34.148 25.2184 33.4776 25.0532 32.7931 24.9494L32.6184 24.9211L32.6278 22.7926L32.6372 20.6642L32.8167 20.5651C33.2793 20.3055 33.5862 19.9232 33.7278 19.4324C33.9544 18.6348 33.539 17.7476 32.7648 17.3653C32.4768 17.2237 32.4154 17.2096 32 17.2096C31.5845 17.2096 31.5232 17.2237 31.2352 17.3653C29.8992 18.0213 29.8708 19.8288 31.1832 20.5651L31.3627 20.6642L31.3721 22.7926L31.3816 24.9211L31.2068 24.9494C30.5224 25.0532 29.852 25.2184 29.4224 25.3836C29.3704 25.4024 29.3563 24.9824 29.3468 23.2645L29.3327 21.1267L29.2193 20.919C29.158 20.801 28.8889 20.4801 28.6198 20.2064L28.1288 19.7014L28.2044 19.3994C28.4121 18.5971 28.0108 17.7429 27.2555 17.37C27.01 17.252 26.8825 17.219 26.5615 17.2048C26.3066 17.1907 26.0988 17.2096 25.9714 17.252ZM26.7125 18.531C27.1375 18.7481 27.0288 19.3852 26.5568 19.4749C26.3491 19.5173 26.1272 19.4041 26.028 19.2153C25.9336 19.0313 25.9384 18.8897 26.0516 18.7056C26.198 18.4649 26.4529 18.3989 26.7125 18.531ZM32.236 18.531C32.3871 18.6112 32.5192 18.8189 32.5192 18.9793C32.5192 19.2295 32.2502 19.4985 32 19.4985C31.7497 19.4985 31.4807 19.2295 31.4807 18.9793C31.4807 18.8236 31.6128 18.6112 31.7544 18.5357C31.9197 18.4413 32.066 18.4413 32.236 18.531ZM37.7312 18.5074C37.8728 18.5593 38.0427 18.8142 38.0427 18.9699C38.0427 19.2672 37.7406 19.5315 37.4573 19.4796C37.2354 19.4371 37.108 19.3286 37.0466 19.1209C36.9192 18.7009 37.3157 18.3469 37.7312 18.5074ZM19.2063 26.0348C19.6312 26.252 19.5226 26.8891 19.0505 26.9788C18.5265 27.0778 18.2386 26.37 18.6823 26.0726C18.8712 25.9452 19.0175 25.9357 19.2063 26.0348ZM45.3176 26.0726C45.53 26.2142 45.6008 26.4643 45.4876 26.6956C45.2845 27.1203 44.685 27.0731 44.5528 26.6248C44.482 26.3888 44.5623 26.1764 44.7652 26.0537C44.9588 25.9357 45.124 25.9404 45.3176 26.0726ZM33.4162 26.3558C35.6115 26.9457 37.2118 28.6164 37.6933 30.8344C37.7359 31.0232 37.7784 31.4432 37.7925 31.7689C37.9105 34.6383 35.9088 37.1396 33.048 37.7012C32.5004 37.805 31.4996 37.805 30.952 37.7012C28.0911 37.1396 26.0894 34.6383 26.2074 31.7689C26.2216 31.4432 26.264 31.0232 26.3066 30.8344C26.7881 28.6211 28.4263 26.9032 30.5837 26.3652C31.2116 26.2095 31.221 26.2048 32.1416 26.2236C32.845 26.2378 33.0338 26.2567 33.4162 26.3558ZM19.2347 31.5754C19.4329 31.6981 19.5179 31.9436 19.4424 32.1748C19.381 32.3588 19.1591 32.524 18.9797 32.524C18.7201 32.524 18.451 32.2597 18.451 32.0049C18.451 31.8492 18.5832 31.6368 18.7248 31.5612C18.8995 31.4621 19.06 31.4668 19.2347 31.5754ZM45.2656 31.5565C45.4168 31.6368 45.5489 31.8444 45.5489 32.0049C45.5489 32.2597 45.2798 32.524 45.0202 32.524C44.8408 32.524 44.6189 32.3588 44.5576 32.1748C44.482 31.9436 44.567 31.6981 44.7652 31.5754C44.9447 31.4668 45.0816 31.4621 45.2656 31.5565ZM19.2819 37.1254C19.4424 37.2292 19.5226 37.5266 19.4424 37.72C19.3716 37.89 19.145 38.0457 18.9656 38.0457C18.7673 38.0457 18.5265 37.8569 18.4793 37.6588C18.3613 37.1868 18.8664 36.8517 19.2819 37.1254ZM45.294 37.0971C45.6103 37.2906 45.6244 37.7342 45.3176 37.9372C45.124 38.0693 44.9588 38.074 44.7652 37.956C44.4348 37.7531 44.4489 37.2623 44.7936 37.0924C45.006 36.9839 45.1146 36.9886 45.294 37.0971ZM26.7881 44.6292C26.8495 44.667 26.925 44.785 26.9533 44.8888C27.1185 45.441 26.3868 45.795 26.0658 45.3183C25.9384 45.1296 25.9289 44.9832 26.028 44.7944C26.1696 44.5255 26.5143 44.45 26.7881 44.6292ZM32.236 44.5821C32.3871 44.6623 32.5192 44.87 32.5192 45.0304C32.5192 45.1909 32.3871 45.3985 32.236 45.4788C32.1604 45.5165 32.0566 45.5496 32 45.5496C31.8395 45.5496 31.6317 45.4174 31.5515 45.2664C31.4618 45.0918 31.4618 44.9691 31.5515 44.7944C31.6836 44.5396 31.9764 44.45 32.236 44.5821ZM37.7595 44.5821C37.9152 44.6623 38.0427 44.87 38.0427 45.0446C38.0427 45.106 37.9955 45.2286 37.9341 45.3183C37.717 45.644 37.2354 45.6015 37.0655 45.2428C36.9947 45.0918 36.99 45.054 37.0513 44.8747C37.1032 44.7284 37.1646 44.6528 37.2874 44.5963C37.4904 44.4924 37.5848 44.4924 37.7595 44.5821Z" fill="url(#paint0_linear_4374_1465)"/>
<path d="M30.3709 28.2766C30.3379 28.3333 27.9868 35.2236 27.9868 35.2708C27.9868 35.2897 28.0199 35.3369 28.0623 35.3746C28.1615 35.4784 29.1293 35.4831 29.2095 35.384C29.2426 35.3463 29.4125 34.8743 29.5919 34.3363C29.7713 33.7983 29.946 33.3405 29.9791 33.3169C30.0121 33.2981 30.4936 33.2792 31.0412 33.2792C32.0327 33.2792 32.0468 33.2792 32.1129 33.383C32.1507 33.4444 32.3206 33.9021 32.4906 34.4071C32.6652 34.9121 32.8257 35.351 32.854 35.3887C32.9155 35.4595 33.9163 35.4784 34.0248 35.4076C34.0579 35.384 34.0862 35.318 34.0862 35.2566C34.0815 35.1197 31.7824 28.3805 31.7069 28.2908C31.6455 28.2153 30.4181 28.2011 30.3709 28.2766ZM31.4425 31.1554C31.5889 31.5849 31.7116 31.9813 31.7116 32.038C31.7163 32.1985 31.5794 32.2409 31.0129 32.2409C30.555 32.2409 30.4747 32.2268 30.3992 32.1513C30.3047 32.0569 30.3095 32.0474 30.5691 31.264C30.7155 30.8298 30.8524 30.4428 30.8807 30.4097C30.9091 30.3767 30.9846 30.3532 31.0507 30.3625C31.1639 30.3767 31.1923 30.4333 31.4425 31.1554Z" fill="url(#paint1_linear_4374_1465)"/>
<path d="M34.7948 28.2856C34.7193 28.3611 34.7146 35.2184 34.7854 35.36C34.8326 35.4402 34.8892 35.4496 35.3517 35.4496C35.7528 35.4496 35.8803 35.4355 35.9369 35.3741C36.003 35.308 36.0124 34.9211 36.0124 31.8204C36.0124 29.1776 35.9983 28.328 35.9558 28.2856C35.918 28.2479 35.7198 28.229 35.3753 28.229C35.0307 28.229 34.8326 28.2479 34.7948 28.2856Z" fill="url(#paint2_linear_4374_1465)"/>
</g>
<defs>
<filter id="filter0_b_4374_1465" x="-31.5579" y="-32" width="128" height="128" filterUnits="userSpaceOnUse" color-interpolation-filters="sRGB">
<feFlood flood-opacity="0" result="BackgroundImageFix"/>
<feGaussianBlur in="BackgroundImageFix" stdDeviation="16"/>
<feComposite in2="SourceAlpha" operator="in" result="effect1_backgroundBlur_4374_1465"/>
<feBlend mode="normal" in="SourceGraphic" in2="effect1_backgroundBlur_4374_1465" result="shape"/>
</filter>
<linearGradient id="paint0_linear_4374_1465" x1="22.1333" y1="17.2002" x2="50.0741" y2="25.7509" gradientUnits="userSpaceOnUse">
<stop stop-color="#00FFE1"/>
<stop offset="1" stop-color="#6E5DF6"/>
</linearGradient>
<linearGradient id="paint1_linear_4374_1465" x1="29.0034" y1="28.2266" x2="34.9065" y2="29.7508" gradientUnits="userSpaceOnUse">
<stop stop-color="#00FFE1"/>
<stop offset="1" stop-color="#6E5DF6"/>
</linearGradient>
<linearGradient id="paint2_linear_4374_1465" x1="34.948" y1="28.229" x2="36.2628" y2="28.3002" gradientUnits="userSpaceOnUse">
<stop stop-color="#00FFE1"/>
<stop offset="1" stop-color="#6E5DF6"/>
</linearGradient>
</defs>
</svg>
