<svg width="65" height="65" viewBox="0 0 65 65" fill="none" xmlns="http://www.w3.org/2000/svg">
<g filter="url(#filter0_b_4374_1444)">
<rect x="0.442139" y="0.5" width="64" height="64" rx="4" fill="white" fill-opacity="0.04"/>
<g clip-path="url(#clip0_4374_1444)">
<path d="M33.3723 16.6939C32.2932 16.9051 32.036 18.3699 32.9866 18.9255C33.2575 19.0862 33.6799 19.123 34.0059 19.0174C34.2906 18.9209 34.6075 18.5995 34.7269 18.2873C34.8968 17.8373 34.736 17.2311 34.3687 16.951C34.0794 16.7306 33.6891 16.6296 33.3723 16.6939Z" fill="url(#paint0_linear_4374_1444)"/>
<path d="M26.8977 17.9933C26.8334 18.0254 26.7554 18.1081 26.7232 18.177C26.6865 18.255 26.6084 19.1091 26.5074 20.5831C26.3283 23.127 26.3467 23.0489 25.9977 23.1545C25.9013 23.1867 25.5201 23.306 25.1528 23.4208C24.4273 23.6504 23.7431 23.9443 23.1278 24.3025C22.6457 24.578 22.563 24.6055 22.3793 24.5229C22.3013 24.4907 21.8742 24.1464 21.4288 23.756C18.6508 21.3316 18.8207 21.4693 18.6186 21.4693C18.4349 21.4693 18.4028 21.4969 17.4064 22.4887C16.7038 23.1867 16.3778 23.5494 16.3594 23.6367C16.3365 23.7239 16.3594 23.8203 16.4145 23.9214C16.4605 24.0086 17.1171 24.7846 17.8747 25.6525C18.6324 26.5157 19.2982 27.2871 19.3579 27.3652C19.5002 27.558 19.4865 27.7371 19.2936 28.0586C18.8482 28.7932 18.4579 29.7162 18.1824 30.6621C18.04 31.1535 17.9849 31.282 17.8839 31.3601C17.7737 31.4427 17.5533 31.4657 15.5696 31.6035C14.362 31.6861 13.3059 31.7642 13.2186 31.7825C13.136 31.7963 13.0166 31.856 12.9569 31.9157L12.8467 32.0259V33.4999V34.9739L12.9569 35.0841C13.0166 35.1438 13.1176 35.208 13.1773 35.2218C13.2324 35.2356 14.2885 35.3137 15.5237 35.3963C17.5533 35.5341 17.7737 35.557 17.8839 35.6397C17.9849 35.7177 18.04 35.8417 18.1778 36.3285C18.4487 37.2698 18.8436 38.1927 19.2936 38.9412C19.4865 39.2626 19.5002 39.4463 19.3579 39.6346C19.3028 39.708 18.8298 40.2545 18.311 40.8468C16.2217 43.2392 16.3043 43.1381 16.3594 43.3723C16.3778 43.4412 16.8048 43.905 17.4064 44.5065C18.3247 45.4295 18.4395 45.5305 18.5773 45.5305C18.6599 45.5305 18.7747 45.5075 18.8298 45.4754C18.9217 45.4295 20.7125 43.8866 21.8008 42.9177C22.2691 42.5045 22.4574 42.3943 22.6319 42.4402C22.6916 42.454 22.912 42.5688 23.1186 42.6927C23.812 43.106 24.6936 43.4596 25.9747 43.8407C26.3421 43.9509 26.3375 43.9279 26.4615 45.783C26.5258 46.6922 26.5946 47.7208 26.6222 48.0698C26.6451 48.4188 26.6911 48.7586 26.7232 48.8274C26.8242 49.0387 26.9436 49.0662 27.8298 49.0662H28.6426V44.254V39.4371L28.1513 39.4096C26.2043 39.2994 24.5329 38.3489 23.4768 36.7647C21.9201 34.4274 22.2278 31.3004 24.2069 29.3397C25.2997 28.256 26.5946 27.682 28.1513 27.5902L28.6426 27.5626V22.7458V17.9336H27.8298C27.265 17.9336 26.9758 17.952 26.8977 17.9933Z" fill="url(#paint1_linear_4374_1444)"/>
<path d="M48.1719 18.2136C47.8137 18.2779 47.5107 18.5075 47.327 18.8565C47.1801 19.1366 47.1755 19.6646 47.3178 19.931C47.6806 20.6106 48.5438 20.808 49.1454 20.3442C49.6964 19.9264 49.7699 19.1044 49.3015 18.5993C48.9984 18.2687 48.6035 18.1356 48.1719 18.2136Z" fill="url(#paint2_linear_4374_1444)"/>
<path d="M39.9388 19.0219C39.8745 19.0632 39.227 19.6877 38.4924 20.3995L37.1607 21.7035L37.1378 20.9964C37.124 20.5051 37.0964 20.2663 37.0551 20.2158C37.0184 20.1745 36.6418 19.8806 36.2102 19.5592C35.4939 19.0219 35.425 18.9806 35.3837 19.0632C35.3561 19.1092 35.2138 19.2699 35.0714 19.4122L34.8051 19.674L35.5123 20.2066L36.2194 20.7347V21.6668V22.5989L35.2459 23.5632C34.7087 24.0913 33.8454 24.9408 33.3265 25.4505L32.3852 26.3827L30.9847 26.3918L29.5842 26.4056L29.5704 26.851L29.5566 27.301H31.1454H32.7342L33.2714 26.7959C33.5653 26.5204 35.2873 24.8444 37.0918 23.0811L40.375 19.8668L43.3367 19.8622H46.2985V19.403V18.9438H43.176C40.3107 18.9438 40.0398 18.9484 39.9388 19.0219Z" fill="url(#paint3_linear_4374_1444)"/>
<path d="M43.5106 23.1868C42.9137 23.3475 42.5188 23.9904 42.6474 24.5735C42.7897 25.2118 43.304 25.6021 43.9285 25.5424C44.8974 25.4552 45.3703 24.3485 44.7642 23.5863C44.4887 23.2373 43.9469 23.0628 43.5106 23.1868Z" fill="url(#paint4_linear_4374_1444)"/>
<path d="M41.0728 23.8984L40.4391 23.926L39.7411 24.6377C39.3554 25.028 38.4325 25.9785 37.684 26.7499C36.9401 27.5214 35.8978 28.5959 35.3743 29.1377L34.4146 30.1249L31.9993 30.1479L29.584 30.1709V30.6301V31.0892L32.1095 31.103C34.4467 31.1122 34.6442 31.1076 34.7774 31.0341C34.8554 30.9882 35.6819 30.1663 36.6095 29.2066C37.537 28.2469 38.3957 27.3607 38.5151 27.2367L38.7355 27.0117L39.1212 27.1632C39.3325 27.2459 40.3243 27.6408 41.3299 28.0403L43.1575 28.7704H45.9952H48.8284V28.3112V27.852H46.1054H43.387L41.4677 27.0897C40.4115 26.6673 39.5299 26.3091 39.5069 26.2908C39.4886 26.2678 39.7825 25.9326 40.1682 25.5377L40.8707 24.8214H41.2886H41.7064V24.3392C41.7064 24.0729 41.7064 23.8617 41.7064 23.8663C41.7064 23.8709 41.4217 23.8847 41.0728 23.8984Z" fill="url(#paint5_linear_4374_1444)"/>
<path d="M50.5276 27.1818C49.747 27.471 49.5128 28.4767 50.0684 29.1333C50.3806 29.5052 51.0327 29.62 51.501 29.3858C51.9005 29.1884 52.1531 28.7843 52.1531 28.3435C52.1531 27.8751 51.974 27.5491 51.5607 27.2782C51.4046 27.1726 51.3082 27.145 51.0373 27.1312C50.8214 27.1221 50.6424 27.1404 50.5276 27.1818Z" fill="url(#paint6_linear_4374_1444)"/>
<path d="M27.8253 28.5457C26.7324 28.6743 25.7773 29.1335 24.96 29.9095C24.51 30.3411 24.1977 30.759 23.936 31.2824C23.137 32.8896 23.261 34.7631 24.2574 36.2784C24.5146 36.6687 25.1482 37.3115 25.5431 37.5824C25.9794 37.8855 26.5396 38.1518 27.0493 38.2988C27.4579 38.4136 28.4452 38.5375 28.5738 38.487C28.6334 38.4641 28.6426 37.8717 28.6334 33.4911L28.6197 28.5182L28.3901 28.5136C28.2661 28.509 28.009 28.5228 27.8253 28.5457Z" fill="url(#paint7_linear_4374_1444)"/>
<path d="M38.308 30.4188C38.2345 30.4647 37.6009 31.0755 36.9075 31.7734L35.6447 33.0408H32.6049H29.5605V33.4999V33.9591H37.7937H46.0223V33.4999V33.0408H41.4993H36.9764L37.8488 32.1683L38.7213 31.2959H42.2248C45.9901 31.2959 45.9396 31.3005 46.1095 31.0617C46.2243 30.8918 46.2014 30.676 46.0498 30.5061L45.9167 30.3545L42.1789 30.3408C38.5743 30.3316 38.4412 30.3362 38.308 30.4188Z" fill="url(#paint8_linear_4374_1444)"/>
<path d="M47.6939 32.3706C47.1383 32.5681 46.7985 33.2523 46.9638 33.8446C47.0373 34.1063 47.3725 34.4921 47.6296 34.6069C47.8868 34.7262 48.346 34.7217 48.6169 34.5977C49.0623 34.3956 49.324 33.9916 49.3194 33.5002C49.3194 32.9997 49.0623 32.6048 48.5985 32.3936C48.3781 32.2926 47.9373 32.2834 47.6939 32.3706Z" fill="url(#paint9_linear_4374_1444)"/>
<path d="M29.5794 35.9475C29.5656 35.9842 29.561 36.1954 29.5702 36.4204L29.584 36.8291L31.9947 36.8429L34.4008 36.8521L34.635 37.0954C35.0069 37.4812 37.4544 40.0113 38.9743 41.5725C39.7457 42.3669 40.4069 43.0327 40.4529 43.0556C40.4942 43.0786 40.7927 43.097 41.1187 43.097H41.7064V42.6378V42.1786H41.2886H40.8707L40.1682 41.4623C39.7825 41.072 39.484 40.7322 39.5069 40.7138C39.5299 40.6908 40.4115 40.3327 41.4677 39.9102L43.387 39.148H46.1054H48.8238L48.8284 38.6888V38.2296H45.9998H43.1712L41.3115 38.9689C40.2921 39.373 39.2957 39.7679 39.0983 39.8505L38.7401 39.9929L38.5197 39.7679C36.7886 37.9817 35.2365 36.3745 35.0942 36.2138C34.7865 35.874 34.9059 35.8878 32.1095 35.8878C30.0661 35.8878 29.5978 35.897 29.5794 35.9475Z" fill="url(#paint10_linear_4374_1444)"/>
<path d="M50.4764 37.5823C50.008 37.7935 49.7646 38.1747 49.7646 38.6935C49.7646 38.9415 49.7876 39.0471 49.8932 39.2445C50.1274 39.6945 50.5453 39.915 51.0733 39.869C51.684 39.8231 52.1019 39.3869 52.1432 38.7486C52.1662 38.4088 52.1065 38.2114 51.8999 37.9405C51.5876 37.5318 50.9402 37.3711 50.4764 37.5823Z" fill="url(#paint11_linear_4374_1444)"/>
<path d="M29.5704 40.1446L29.5842 40.5946L30.9847 40.6084L32.3806 40.6176L33.2347 41.4579C34.2403 42.4497 35.8566 44.0339 36.0725 44.2359L36.2194 44.3783V45.3242V46.2655L35.5123 46.7936L34.8051 47.3263L35.0714 47.588C35.2138 47.7303 35.3561 47.891 35.3837 47.937C35.425 48.0196 35.4939 47.9783 36.2102 47.441C36.6418 47.1196 37.0184 46.8257 37.0551 46.7844C37.0964 46.7339 37.124 46.4951 37.1378 46.0084L37.1607 45.3058L37.5969 45.7237C37.8357 45.9579 38.4281 46.5273 38.9056 47.0002C39.3878 47.4686 39.8378 47.9002 39.9112 47.9553L40.0444 48.0564H43.1714H46.2985V47.5972V47.138H43.3367H40.375L39.6862 46.4584C39.3097 46.0865 38.6072 45.3977 38.125 44.9293C37.6475 44.4655 36.3939 43.2441 35.3469 42.2201C34.3 41.1961 33.2806 40.2135 33.0878 40.0298L32.7342 39.6992H31.1454H29.5566L29.5704 40.1446Z" fill="url(#paint12_linear_4374_1444)"/>
<path d="M43.405 41.5128C42.7897 41.7424 42.4683 42.4771 42.7071 43.1062C42.8035 43.3496 43.1157 43.6618 43.3729 43.772C43.4647 43.8134 43.6713 43.8455 43.8229 43.8455C44.5346 43.8547 45.0856 43.2577 45.0213 42.5506C44.9846 42.119 44.7458 41.7654 44.3693 41.5725C44.1305 41.4486 43.6576 41.421 43.405 41.5128Z" fill="url(#paint13_linear_4374_1444)"/>
<path d="M47.9287 46.4951C47.6715 46.6145 47.4465 46.8257 47.3179 47.0691C47.1756 47.3308 47.1802 47.8635 47.3179 48.1298C47.7312 48.9058 48.7093 49.0436 49.3016 48.4007C49.4853 48.2033 49.6276 47.8497 49.6276 47.5971C49.6276 47.2022 49.3659 46.7706 48.9985 46.5548C48.7093 46.3849 48.2225 46.3573 47.9287 46.4951Z" fill="url(#paint14_linear_4374_1444)"/>
<path d="M33.1697 47.9875C32.5222 48.217 32.2008 49.0298 32.513 49.6451C32.6462 49.9068 32.8942 50.1456 33.1329 50.2466C33.2202 50.2834 33.4268 50.3155 33.5875 50.3155C34.6207 50.3201 35.1809 49.117 34.5013 48.3456C34.1661 47.9645 33.6335 47.8221 33.1697 47.9875Z" fill="url(#paint15_linear_4374_1444)"/>
</g>
</g>
<defs>
<filter id="filter0_b_4374_1444" x="-31.5579" y="-31.5" width="128" height="128" filterUnits="userSpaceOnUse" color-interpolation-filters="sRGB">
<feFlood flood-opacity="0" result="BackgroundImageFix"/>
<feGaussianBlur in="BackgroundImageFix" stdDeviation="16"/>
<feComposite in2="SourceAlpha" operator="in" result="effect1_backgroundBlur_4374_1444"/>
<feBlend mode="normal" in="SourceGraphic" in2="effect1_backgroundBlur_4374_1444" result="shape"/>
</filter>
<linearGradient id="paint0_linear_4374_1444" x1="32.7986" y1="19.0771" x2="35.0607" y2="18.3869" gradientUnits="userSpaceOnUse">
<stop stop-color="#00FFE1"/>
<stop offset="1" stop-color="#6E5DF6"/>
</linearGradient>
<linearGradient id="paint1_linear_4374_1444" x1="15.4793" y1="49.0662" x2="31.4024" y2="46.5938" gradientUnits="userSpaceOnUse">
<stop stop-color="#00FFE1"/>
<stop offset="1" stop-color="#6E5DF6"/>
</linearGradient>
<linearGradient id="paint2_linear_4374_1444" x1="47.6133" y1="20.5965" x2="49.8769" y2="19.9061" gradientUnits="userSpaceOnUse">
<stop stop-color="#00FFE1"/>
<stop offset="1" stop-color="#6E5DF6"/>
</linearGradient>
<linearGradient id="paint3_linear_4374_1444" x1="32.3469" y1="27.301" x2="44.909" y2="19.5997" gradientUnits="userSpaceOnUse">
<stop stop-color="#00FFE1"/>
<stop offset="1" stop-color="#6E5DF6"/>
</linearGradient>
<linearGradient id="paint4_linear_4374_1444" x1="43.0249" y1="25.5484" x2="45.2993" y2="24.8495" gradientUnits="userSpaceOnUse">
<stop stop-color="#00FFE1"/>
<stop offset="1" stop-color="#6E5DF6"/>
</linearGradient>
<linearGradient id="paint5_linear_4374_1444" x1="32.7914" y1="31.1065" x2="44.7476" y2="21.3812" gradientUnits="userSpaceOnUse">
<stop stop-color="#00FFE1"/>
<stop offset="1" stop-color="#6E5DF6"/>
</linearGradient>
<linearGradient id="paint6_linear_4374_1444" x1="50.1619" y1="29.5074" x2="52.4156" y2="28.8146" gradientUnits="userSpaceOnUse">
<stop stop-color="#00FFE1"/>
<stop offset="1" stop-color="#6E5DF6"/>
</linearGradient>
<linearGradient id="paint7_linear_4374_1444" x1="24.2837" y1="38.4986" x2="29.5413" y2="37.657" gradientUnits="userSpaceOnUse">
<stop stop-color="#00FFE1"/>
<stop offset="1" stop-color="#6E5DF6"/>
</linearGradient>
<linearGradient id="paint8_linear_4374_1444" x1="32.3308" y1="33.9591" x2="38.1034" y2="25.8517" gradientUnits="userSpaceOnUse">
<stop stop-color="#00FFE1"/>
<stop offset="1" stop-color="#6E5DF6"/>
</linearGradient>
<linearGradient id="paint9_linear_4374_1444" x1="47.3215" y1="34.6936" x2="49.5822" y2="33.9974" gradientUnits="userSpaceOnUse">
<stop stop-color="#00FFE1"/>
<stop offset="1" stop-color="#6E5DF6"/>
</linearGradient>
<linearGradient id="paint10_linear_4374_1444" x1="32.7759" y1="43.097" x2="44.6935" y2="33.3519" gradientUnits="userSpaceOnUse">
<stop stop-color="#00FFE1"/>
<stop offset="1" stop-color="#6E5DF6"/>
</linearGradient>
<linearGradient id="paint11_linear_4374_1444" x1="50.1618" y1="39.875" x2="52.4119" y2="39.1872" gradientUnits="userSpaceOnUse">
<stop stop-color="#00FFE1"/>
<stop offset="1" stop-color="#6E5DF6"/>
</linearGradient>
<linearGradient id="paint12_linear_4374_1444" x1="32.3469" y1="48.0564" x2="44.909" y2="40.355" gradientUnits="userSpaceOnUse">
<stop stop-color="#00FFE1"/>
<stop offset="1" stop-color="#6E5DF6"/>
</linearGradient>
<linearGradient id="paint13_linear_4374_1444" x1="43.0277" y1="43.8456" x2="45.2899" y2="43.15" gradientUnits="userSpaceOnUse">
<stop stop-color="#00FFE1"/>
<stop offset="1" stop-color="#6E5DF6"/>
</linearGradient>
<linearGradient id="paint14_linear_4374_1444" x1="47.6153" y1="48.8083" x2="49.8925" y2="48.1075" gradientUnits="userSpaceOnUse">
<stop stop-color="#00FFE1"/>
<stop offset="1" stop-color="#6E5DF6"/>
</linearGradient>
<linearGradient id="paint15_linear_4374_1444" x1="32.7936" y1="50.3155" x2="35.0634" y2="49.6179" gradientUnits="userSpaceOnUse">
<stop stop-color="#00FFE1"/>
<stop offset="1" stop-color="#6E5DF6"/>
</linearGradient>
<clipPath id="clip0_4374_1444">
<rect width="41" height="35" fill="white" transform="translate(12 16)"/>
</clipPath>
</defs>
</svg>
