<svg width="431" height="230" viewBox="0 0 431 230" fill="none" xmlns="http://www.w3.org/2000/svg">
<rect y="0.9375" width="431" height="229" rx="10" fill="black" fill-opacity="0.03"/>
<path d="M19.2032 30.6734V29.3995C18.692 29.3913 18.22 29.3459 17.7871 29.2635C17.3584 29.1769 16.9873 29.0656 16.674 28.9295V27.6124C16.9915 27.7608 17.3831 27.8948 17.849 28.0143C18.3148 28.1339 18.7662 28.2019 19.2032 28.2184V25.8995C18.6054 25.6975 18.119 25.4872 17.7438 25.2687C17.3728 25.0502 17.1007 24.7967 16.9276 24.5081C16.7544 24.2154 16.6679 23.865 16.6679 23.4569C16.6679 23.0364 16.773 22.6757 16.9832 22.3747C17.1976 22.0696 17.4944 21.8285 17.8737 21.6512C18.2571 21.4739 18.7003 21.3688 19.2032 21.3358V20.3279H20.0071V21.3173C20.4647 21.3297 20.8873 21.3812 21.2748 21.4719C21.6664 21.5585 22.0395 21.6801 22.394 21.8367L21.9426 22.9869C21.6334 22.8632 21.3119 22.7622 20.978 22.6839C20.644 22.6056 20.3204 22.552 20.0071 22.5231V24.7864C20.51 24.9513 20.9573 25.1286 21.349 25.3182C21.7447 25.5078 22.0539 25.7469 22.2766 26.0355C22.5033 26.32 22.6167 26.6931 22.6167 27.1548C22.6167 27.7608 22.394 28.2617 21.9488 28.6575C21.5036 29.0491 20.8563 29.2841 20.0071 29.3624V30.6734H19.2032ZM20.0071 28.1689C20.4029 28.1195 20.6976 28.0164 20.8914 27.8597C21.0851 27.699 21.182 27.4908 21.182 27.2352C21.182 27.062 21.1408 26.9157 21.0583 26.7961C20.98 26.6766 20.8543 26.5694 20.6811 26.4746C20.5121 26.3798 20.2874 26.287 20.0071 26.1963V28.1689ZM19.2032 24.4834V22.5479C18.9641 22.5726 18.7621 22.6221 18.5972 22.6963C18.4323 22.7705 18.3086 22.8674 18.2262 22.9869C18.1437 23.1065 18.1025 23.2487 18.1025 23.4136C18.1025 23.595 18.1396 23.7496 18.2138 23.8774C18.288 24.0052 18.4055 24.1165 18.5663 24.2113C18.7312 24.3061 18.9435 24.3968 19.2032 24.4834ZM28.85 29.9375H27.3906V24.1185C27.3906 23.9248 27.3927 23.731 27.3968 23.5373C27.4009 23.3435 27.4051 23.1539 27.4092 22.9684C27.4174 22.7828 27.4277 22.6056 27.4401 22.4366C27.3535 22.5314 27.2463 22.6344 27.1185 22.7457C26.9949 22.8571 26.8629 22.9725 26.7228 23.092L25.6839 23.9207L24.9542 22.9993L27.638 20.8968H28.85V29.9375ZM38.707 29.9375H32.5851V28.843L34.9287 26.4684C35.3822 26.0067 35.7553 25.6088 36.048 25.2749C36.3407 24.9369 36.5571 24.6174 36.6973 24.3164C36.8416 24.0155 36.9137 23.6877 36.9137 23.3332C36.9137 22.8962 36.788 22.5664 36.5365 22.3438C36.2851 22.1171 35.9532 22.0037 35.5409 22.0037C35.1493 22.0037 34.7865 22.082 34.4526 22.2387C34.1228 22.3912 33.7806 22.6097 33.4261 22.8942L32.6284 21.9357C32.8798 21.7213 33.1478 21.5255 33.4323 21.3482C33.7208 21.1709 34.0424 21.0308 34.3969 20.9277C34.7515 20.8205 35.1555 20.7669 35.609 20.7669C36.182 20.7669 36.6767 20.87 37.0931 21.0761C37.5094 21.2781 37.8289 21.5605 38.0516 21.9233C38.2783 22.2861 38.3917 22.7086 38.3917 23.191C38.3917 23.6774 38.2948 24.1268 38.101 24.539C37.9073 24.9513 37.6311 25.3594 37.2724 25.7634C36.9137 26.1633 36.4871 26.5982 35.9924 27.0682L34.4279 28.5956V28.6636H38.707V29.9375ZM46.7151 25.411C46.7151 26.1406 46.6574 26.7941 46.542 27.3712C46.4307 27.9443 46.2534 28.4307 46.0102 28.8306C45.7669 29.2305 45.4495 29.5356 45.0579 29.7458C44.6662 29.9561 44.1921 30.0612 43.6356 30.0612C42.9389 30.0612 42.3638 29.8777 41.9103 29.5108C41.4568 29.1398 41.1208 28.608 40.9024 27.9154C40.6839 27.2187 40.5746 26.3839 40.5746 25.411C40.5746 24.438 40.6736 23.6053 40.8714 22.9127C41.0734 22.216 41.3991 21.6821 41.8485 21.3111C42.2978 20.9401 42.8935 20.7546 43.6356 20.7546C44.3364 20.7546 44.9136 20.9401 45.3671 21.3111C45.8247 21.678 46.1627 22.2098 46.3812 22.9065C46.6038 23.5991 46.7151 24.4339 46.7151 25.411ZM42.0402 25.411C42.0402 26.1736 42.0896 26.8106 42.1886 27.3218C42.2916 27.8329 42.4607 28.2163 42.6957 28.4719C42.9306 28.7234 43.244 28.8492 43.6356 28.8492C44.0272 28.8492 44.3405 28.7234 44.5755 28.4719C44.8105 28.2205 44.9795 27.8391 45.0826 27.3279C45.1898 26.8167 45.2434 26.1778 45.2434 25.411C45.2434 24.6524 45.1918 24.0175 45.0888 23.5064C44.9857 22.9952 44.8167 22.6118 44.5817 22.3562C44.3467 22.0964 44.0314 21.9666 43.6356 21.9666C43.2398 21.9666 42.9245 22.0964 42.6895 22.3562C42.4586 22.6118 42.2916 22.9952 42.1886 23.5064C42.0896 24.0175 42.0402 24.6524 42.0402 25.411ZM54.7232 25.411C54.7232 26.1406 54.6655 26.7941 54.5501 27.3712C54.4388 27.9443 54.2615 28.4307 54.0183 28.8306C53.775 29.2305 53.4576 29.5356 53.066 29.7458C52.6743 29.9561 52.2002 30.0612 51.6437 30.0612C50.947 30.0612 50.3719 29.8777 49.9184 29.5108C49.4649 29.1398 49.1289 28.608 48.9104 27.9154C48.6919 27.2187 48.5827 26.3839 48.5827 25.411C48.5827 24.438 48.6816 23.6053 48.8795 22.9127C49.0815 22.216 49.4072 21.6821 49.8566 21.3111C50.3059 20.9401 50.9016 20.7546 51.6437 20.7546C52.3445 20.7546 52.9217 20.9401 53.3751 21.3111C53.8327 21.678 54.1708 22.2098 54.3893 22.9065C54.6119 23.5991 54.7232 24.4339 54.7232 25.411ZM50.0483 25.411C50.0483 26.1736 50.0977 26.8106 50.1967 27.3218C50.2997 27.8329 50.4688 28.2163 50.7037 28.4719C50.9387 28.7234 51.252 28.8492 51.6437 28.8492C52.0353 28.8492 52.3486 28.7234 52.5836 28.4719C52.8186 28.2205 52.9876 27.8391 53.0907 27.3279C53.1979 26.8167 53.2515 26.1778 53.2515 25.411C53.2515 24.6524 53.1999 24.0175 53.0969 23.5064C52.9938 22.9952 52.8248 22.6118 52.5898 22.3562C52.3548 22.0964 52.0394 21.9666 51.6437 21.9666C51.2479 21.9666 50.9325 22.0964 50.6976 22.3562C50.4667 22.6118 50.2997 22.9952 50.1967 23.5064C50.0977 24.0175 50.0483 24.6524 50.0483 25.411Z" fill="#929292"/>
<path d="M19.2032 66.6734V65.3995C18.692 65.3913 18.22 65.3459 17.7871 65.2635C17.3584 65.1769 16.9873 65.0656 16.674 64.9295V63.6124C16.9915 63.7608 17.3831 63.8948 17.849 64.0143C18.3148 64.1339 18.7662 64.2019 19.2032 64.2184V61.8995C18.6054 61.6975 18.119 61.4872 17.7438 61.2687C17.3728 61.0502 17.1007 60.7967 16.9276 60.5081C16.7544 60.2154 16.6679 59.865 16.6679 59.4569C16.6679 59.0364 16.773 58.6757 16.9832 58.3747C17.1976 58.0696 17.4944 57.8285 17.8737 57.6512C18.2571 57.4739 18.7003 57.3688 19.2032 57.3358V56.3279H20.0071V57.3173C20.4647 57.3297 20.8873 57.3812 21.2748 57.4719C21.6664 57.5585 22.0395 57.6801 22.394 57.8367L21.9426 58.9869C21.6334 58.8632 21.3119 58.7622 20.978 58.6839C20.644 58.6056 20.3204 58.552 20.0071 58.5231V60.7864C20.51 60.9513 20.9573 61.1286 21.349 61.3182C21.7447 61.5078 22.0539 61.7469 22.2766 62.0355C22.5033 62.32 22.6167 62.6931 22.6167 63.1548C22.6167 63.7608 22.394 64.2617 21.9488 64.6575C21.5036 65.0491 20.8563 65.2841 20.0071 65.3624V66.6734H19.2032ZM20.0071 64.1689C20.4029 64.1195 20.6976 64.0164 20.8914 63.8597C21.0851 63.699 21.182 63.4908 21.182 63.2352C21.182 63.062 21.1408 62.9157 21.0583 62.7961C20.98 62.6766 20.8543 62.5694 20.6811 62.4746C20.5121 62.3798 20.2874 62.287 20.0071 62.1963V64.1689ZM19.2032 60.4834V58.5479C18.9641 58.5726 18.7621 58.6221 18.5972 58.6963C18.4323 58.7705 18.3086 58.8674 18.2262 58.9869C18.1437 59.1065 18.1025 59.2487 18.1025 59.4136C18.1025 59.595 18.1396 59.7496 18.2138 59.8774C18.288 60.0052 18.4055 60.1165 18.5663 60.2113C18.7312 60.3061 18.9435 60.3968 19.2032 60.4834ZM28.85 65.9375H27.3906V60.1185C27.3906 59.9248 27.3927 59.731 27.3968 59.5373C27.4009 59.3435 27.4051 59.1539 27.4092 58.9684C27.4174 58.7828 27.4277 58.6056 27.4401 58.4366C27.3535 58.5314 27.2463 58.6344 27.1185 58.7457C26.9949 58.8571 26.8629 58.9725 26.7228 59.092L25.6839 59.9207L24.9542 58.9993L27.638 56.8968H28.85V65.9375ZM38.707 61.411C38.707 62.1406 38.6493 62.7941 38.5339 63.3712C38.4226 63.9443 38.2453 64.4307 38.0021 64.8306C37.7589 65.2305 37.4414 65.5356 37.0498 65.7458C36.6581 65.9561 36.1841 66.0612 35.6275 66.0612C34.9308 66.0612 34.3557 65.8777 33.9022 65.5108C33.4488 65.1398 33.1128 64.608 32.8943 63.9154C32.6758 63.2187 32.5665 62.3839 32.5665 61.411C32.5665 60.438 32.6655 59.6053 32.8634 58.9127C33.0654 58.216 33.391 57.6821 33.8404 57.3111C34.2897 56.9401 34.8855 56.7546 35.6275 56.7546C36.3283 56.7546 36.9055 56.9401 37.359 57.3111C37.8166 57.678 38.1546 58.2098 38.3731 58.9065C38.5957 59.5991 38.707 60.4339 38.707 61.411ZM34.0321 61.411C34.0321 62.1736 34.0816 62.8106 34.1805 63.3218C34.2836 63.8329 34.4526 64.2163 34.6876 64.4719C34.9226 64.7234 35.2359 64.8492 35.6275 64.8492C36.0191 64.8492 36.3325 64.7234 36.5674 64.4719C36.8024 64.2205 36.9715 63.8391 37.0745 63.3279C37.1817 62.8167 37.2353 62.1778 37.2353 61.411C37.2353 60.6524 37.1838 60.0175 37.0807 59.5064C36.9776 58.9952 36.8086 58.6118 36.5736 58.3562C36.3386 58.0964 36.0233 57.9666 35.6275 57.9666C35.2317 57.9666 34.9164 58.0964 34.6814 58.3562C34.4505 58.6118 34.2836 58.9952 34.1805 59.5064C34.0816 60.0175 34.0321 60.6524 34.0321 61.411ZM46.7151 61.411C46.7151 62.1406 46.6574 62.7941 46.542 63.3712C46.4307 63.9443 46.2534 64.4307 46.0102 64.8306C45.7669 65.2305 45.4495 65.5356 45.0579 65.7458C44.6662 65.9561 44.1921 66.0612 43.6356 66.0612C42.9389 66.0612 42.3638 65.8777 41.9103 65.5108C41.4568 65.1398 41.1208 64.608 40.9024 63.9154C40.6839 63.2187 40.5746 62.3839 40.5746 61.411C40.5746 60.438 40.6736 59.6053 40.8714 58.9127C41.0734 58.216 41.3991 57.6821 41.8485 57.3111C42.2978 56.9401 42.8935 56.7546 43.6356 56.7546C44.3364 56.7546 44.9136 56.9401 45.3671 57.3111C45.8247 57.678 46.1627 58.2098 46.3812 58.9065C46.6038 59.5991 46.7151 60.4339 46.7151 61.411ZM42.0402 61.411C42.0402 62.1736 42.0896 62.8106 42.1886 63.3218C42.2916 63.8329 42.4607 64.2163 42.6957 64.4719C42.9306 64.7234 43.244 64.8492 43.6356 64.8492C44.0272 64.8492 44.3405 64.7234 44.5755 64.4719C44.8105 64.2205 44.9795 63.8391 45.0826 63.3279C45.1898 62.8167 45.2434 62.1778 45.2434 61.411C45.2434 60.6524 45.1918 60.0175 45.0888 59.5064C44.9857 58.9952 44.8167 58.6118 44.5817 58.3562C44.3467 58.0964 44.0314 57.9666 43.6356 57.9666C43.2398 57.9666 42.9245 58.0964 42.6895 58.3562C42.4586 58.6118 42.2916 58.9952 42.1886 59.5064C42.0896 60.0175 42.0402 60.6524 42.0402 61.411ZM54.7232 61.411C54.7232 62.1406 54.6655 62.7941 54.5501 63.3712C54.4388 63.9443 54.2615 64.4307 54.0183 64.8306C53.775 65.2305 53.4576 65.5356 53.066 65.7458C52.6743 65.9561 52.2002 66.0612 51.6437 66.0612C50.947 66.0612 50.3719 65.8777 49.9184 65.5108C49.4649 65.1398 49.1289 64.608 48.9104 63.9154C48.6919 63.2187 48.5827 62.3839 48.5827 61.411C48.5827 60.438 48.6816 59.6053 48.8795 58.9127C49.0815 58.216 49.4072 57.6821 49.8566 57.3111C50.3059 56.9401 50.9016 56.7546 51.6437 56.7546C52.3445 56.7546 52.9217 56.9401 53.3751 57.3111C53.8327 57.678 54.1708 58.2098 54.3893 58.9065C54.6119 59.5991 54.7232 60.4339 54.7232 61.411ZM50.0483 61.411C50.0483 62.1736 50.0977 62.8106 50.1967 63.3218C50.2997 63.8329 50.4688 64.2163 50.7037 64.4719C50.9387 64.7234 51.252 64.8492 51.6437 64.8492C52.0353 64.8492 52.3486 64.7234 52.5836 64.4719C52.8186 64.2205 52.9876 63.8391 53.0907 63.3279C53.1979 62.8167 53.2515 62.1778 53.2515 61.411C53.2515 60.6524 53.1999 60.0175 53.0969 59.5064C52.9938 58.9952 52.8248 58.6118 52.5898 58.3562C52.3548 58.0964 52.0394 57.9666 51.6437 57.9666C51.2479 57.9666 50.9325 58.0964 50.6976 58.3562C50.4667 58.6118 50.2997 58.9952 50.1967 59.5064C50.0977 60.0175 50.0483 60.6524 50.0483 61.411Z" fill="#929292"/>
<path d="M19.2032 102.673V101.4C18.692 101.391 18.22 101.346 17.7871 101.263C17.3584 101.177 16.9873 101.066 16.674 100.93V99.6124C16.9915 99.7608 17.3831 99.8948 17.849 100.014C18.3148 100.134 18.7662 100.202 19.2032 100.218V97.8995C18.6054 97.6975 18.119 97.4872 17.7438 97.2687C17.3728 97.0502 17.1007 96.7967 16.9276 96.5081C16.7544 96.2154 16.6679 95.865 16.6679 95.4569C16.6679 95.0364 16.773 94.6757 16.9832 94.3747C17.1976 94.0696 17.4944 93.8285 17.8737 93.6512C18.2571 93.4739 18.7003 93.3688 19.2032 93.3358V92.3279H20.0071V93.3173C20.4647 93.3297 20.8873 93.3812 21.2748 93.4719C21.6664 93.5585 22.0395 93.6801 22.394 93.8367L21.9426 94.9869C21.6334 94.8632 21.3119 94.7622 20.978 94.6839C20.644 94.6056 20.3204 94.552 20.0071 94.5231V96.7864C20.51 96.9513 20.9573 97.1286 21.349 97.3182C21.7447 97.5078 22.0539 97.7469 22.2766 98.0355C22.5033 98.32 22.6167 98.6931 22.6167 99.1548C22.6167 99.7608 22.394 100.262 21.9488 100.657C21.5036 101.049 20.8563 101.284 20.0071 101.362V102.673H19.2032ZM20.0071 100.169C20.4029 100.119 20.6976 100.016 20.8914 99.8597C21.0851 99.699 21.182 99.4908 21.182 99.2352C21.182 99.062 21.1408 98.9157 21.0583 98.7961C20.98 98.6766 20.8543 98.5694 20.6811 98.4746C20.5121 98.3798 20.2874 98.287 20.0071 98.1963V100.169ZM19.2032 96.4834V94.5479C18.9641 94.5726 18.7621 94.6221 18.5972 94.6963C18.4323 94.7705 18.3086 94.8674 18.2262 94.9869C18.1437 95.1065 18.1025 95.2487 18.1025 95.4136C18.1025 95.595 18.1396 95.7496 18.2138 95.8774C18.288 96.0052 18.4055 96.1165 18.5663 96.2113C18.7312 96.3061 18.9435 96.3968 19.2032 96.4834ZM27.6503 96.2855C28.2316 96.2855 28.7428 96.3906 29.1839 96.6009C29.6292 96.807 29.9754 97.1121 30.2228 97.5161C30.4702 97.916 30.5938 98.4066 30.5938 98.9878C30.5938 99.6227 30.4598 100.171 30.1919 100.633C29.9239 101.09 29.5302 101.443 29.0108 101.69C28.4913 101.938 27.8585 102.061 27.1124 102.061C26.6383 102.061 26.1951 102.02 25.7828 101.938C25.3747 101.855 25.0222 101.731 24.7254 101.566V100.256C25.0346 100.429 25.4056 100.571 25.8385 100.682C26.2714 100.789 26.6857 100.843 27.0814 100.843C27.5019 100.843 27.8627 100.781 28.1636 100.657C28.4645 100.534 28.6954 100.344 28.8562 100.089C29.0211 99.8329 29.1035 99.5093 29.1035 99.1177C29.1035 98.5982 28.9366 98.1984 28.6026 97.918C28.2728 97.6336 27.7555 97.4913 27.0505 97.4913C26.8032 97.4913 26.5393 97.514 26.259 97.5594C25.9828 97.6006 25.7519 97.6459 25.5664 97.6954L24.9295 97.3182L25.2696 92.8968H29.9693V94.1768H26.5496L26.3517 96.4277C26.5002 96.3948 26.6774 96.3638 26.8836 96.335C27.0897 96.302 27.3453 96.2855 27.6503 96.2855ZM38.707 97.411C38.707 98.1406 38.6493 98.7941 38.5339 99.3712C38.4226 99.9443 38.2453 100.431 38.0021 100.831C37.7589 101.23 37.4414 101.536 37.0498 101.746C36.6581 101.956 36.1841 102.061 35.6275 102.061C34.9308 102.061 34.3557 101.878 33.9022 101.511C33.4488 101.14 33.1128 100.608 32.8943 99.9154C32.6758 99.2187 32.5665 98.3839 32.5665 97.411C32.5665 96.438 32.6655 95.6053 32.8634 94.9127C33.0654 94.216 33.391 93.6821 33.8404 93.3111C34.2897 92.9401 34.8855 92.7546 35.6275 92.7546C36.3283 92.7546 36.9055 92.9401 37.359 93.3111C37.8166 93.678 38.1546 94.2098 38.3731 94.9065C38.5957 95.5991 38.707 96.4339 38.707 97.411ZM34.0321 97.411C34.0321 98.1736 34.0816 98.8106 34.1805 99.3218C34.2836 99.8329 34.4526 100.216 34.6876 100.472C34.9226 100.723 35.2359 100.849 35.6275 100.849C36.0191 100.849 36.3325 100.723 36.5674 100.472C36.8024 100.22 36.9715 99.8391 37.0745 99.3279C37.1817 98.8167 37.2353 98.1778 37.2353 97.411C37.2353 96.6524 37.1838 96.0175 37.0807 95.5064C36.9776 94.9952 36.8086 94.6118 36.5736 94.3562C36.3386 94.0964 36.0233 93.9666 35.6275 93.9666C35.2317 93.9666 34.9164 94.0964 34.6814 94.3562C34.4505 94.6118 34.2836 94.9952 34.1805 95.5064C34.0816 96.0175 34.0321 96.6524 34.0321 97.411ZM46.7151 97.411C46.7151 98.1406 46.6574 98.7941 46.542 99.3712C46.4307 99.9443 46.2534 100.431 46.0102 100.831C45.7669 101.23 45.4495 101.536 45.0579 101.746C44.6662 101.956 44.1921 102.061 43.6356 102.061C42.9389 102.061 42.3638 101.878 41.9103 101.511C41.4568 101.14 41.1208 100.608 40.9024 99.9154C40.6839 99.2187 40.5746 98.3839 40.5746 97.411C40.5746 96.438 40.6736 95.6053 40.8714 94.9127C41.0734 94.216 41.3991 93.6821 41.8485 93.3111C42.2978 92.9401 42.8935 92.7546 43.6356 92.7546C44.3364 92.7546 44.9136 92.9401 45.3671 93.3111C45.8247 93.678 46.1627 94.2098 46.3812 94.9065C46.6038 95.5991 46.7151 96.4339 46.7151 97.411ZM42.0402 97.411C42.0402 98.1736 42.0896 98.8106 42.1886 99.3218C42.2916 99.8329 42.4607 100.216 42.6957 100.472C42.9306 100.723 43.244 100.849 43.6356 100.849C44.0272 100.849 44.3405 100.723 44.5755 100.472C44.8105 100.22 44.9795 99.8391 45.0826 99.3279C45.1898 98.8167 45.2434 98.1778 45.2434 97.411C45.2434 96.6524 45.1918 96.0175 45.0888 95.5064C44.9857 94.9952 44.8167 94.6118 44.5817 94.3562C44.3467 94.0964 44.0314 93.9666 43.6356 93.9666C43.2398 93.9666 42.9245 94.0964 42.6895 94.3562C42.4586 94.6118 42.2916 94.9952 42.1886 95.5064C42.0896 96.0175 42.0402 96.6524 42.0402 97.411Z" fill="#929292"/>
<path d="M19.2032 138.673V137.4C18.692 137.391 18.22 137.346 17.7871 137.263C17.3584 137.177 16.9873 137.066 16.674 136.93V135.612C16.9915 135.761 17.3831 135.895 17.849 136.014C18.3148 136.134 18.7662 136.202 19.2032 136.218V133.899C18.6054 133.697 18.119 133.487 17.7438 133.269C17.3728 133.05 17.1007 132.797 16.9276 132.508C16.7544 132.215 16.6679 131.865 16.6679 131.457C16.6679 131.036 16.773 130.676 16.9832 130.375C17.1976 130.07 17.4944 129.828 17.8737 129.651C18.2571 129.474 18.7003 129.369 19.2032 129.336V128.328H20.0071V129.317C20.4647 129.33 20.8873 129.381 21.2748 129.472C21.6664 129.558 22.0395 129.68 22.394 129.837L21.9426 130.987C21.6334 130.863 21.3119 130.762 20.978 130.684C20.644 130.606 20.3204 130.552 20.0071 130.523V132.786C20.51 132.951 20.9573 133.129 21.349 133.318C21.7447 133.508 22.0539 133.747 22.2766 134.036C22.5033 134.32 22.6167 134.693 22.6167 135.155C22.6167 135.761 22.394 136.262 21.9488 136.657C21.5036 137.049 20.8563 137.284 20.0071 137.362V138.673H19.2032ZM20.0071 136.169C20.4029 136.119 20.6976 136.016 20.8914 135.86C21.0851 135.699 21.182 135.491 21.182 135.235C21.182 135.062 21.1408 134.916 21.0583 134.796C20.98 134.677 20.8543 134.569 20.6811 134.475C20.5121 134.38 20.2874 134.287 20.0071 134.196V136.169ZM19.2032 132.483V130.548C18.9641 130.573 18.7621 130.622 18.5972 130.696C18.4323 130.77 18.3086 130.867 18.2262 130.987C18.1437 131.106 18.1025 131.249 18.1025 131.414C18.1025 131.595 18.1396 131.75 18.2138 131.877C18.288 132.005 18.4055 132.116 18.5663 132.211C18.7312 132.306 18.9435 132.397 19.2032 132.483ZM28.85 137.938H27.3906V132.119C27.3906 131.925 27.3927 131.731 27.3968 131.537C27.4009 131.344 27.4051 131.154 27.4092 130.968C27.4174 130.783 27.4277 130.606 27.4401 130.437C27.3535 130.531 27.2463 130.634 27.1185 130.746C26.9949 130.857 26.8629 130.972 26.7228 131.092L25.6839 131.921L24.9542 130.999L27.638 128.897H28.85V137.938ZM38.707 133.411C38.707 134.141 38.6493 134.794 38.5339 135.371C38.4226 135.944 38.2453 136.431 38.0021 136.831C37.7589 137.23 37.4414 137.536 37.0498 137.746C36.6581 137.956 36.1841 138.061 35.6275 138.061C34.9308 138.061 34.3557 137.878 33.9022 137.511C33.4488 137.14 33.1128 136.608 32.8943 135.915C32.6758 135.219 32.5665 134.384 32.5665 133.411C32.5665 132.438 32.6655 131.605 32.8634 130.913C33.0654 130.216 33.391 129.682 33.8404 129.311C34.2897 128.94 34.8855 128.755 35.6275 128.755C36.3283 128.755 36.9055 128.94 37.359 129.311C37.8166 129.678 38.1546 130.21 38.3731 130.907C38.5957 131.599 38.707 132.434 38.707 133.411ZM34.0321 133.411C34.0321 134.174 34.0816 134.811 34.1805 135.322C34.2836 135.833 34.4526 136.216 34.6876 136.472C34.9226 136.723 35.2359 136.849 35.6275 136.849C36.0191 136.849 36.3325 136.723 36.5674 136.472C36.8024 136.22 36.9715 135.839 37.0745 135.328C37.1817 134.817 37.2353 134.178 37.2353 133.411C37.2353 132.652 37.1838 132.018 37.0807 131.506C36.9776 130.995 36.8086 130.612 36.5736 130.356C36.3386 130.096 36.0233 129.967 35.6275 129.967C35.2317 129.967 34.9164 130.096 34.6814 130.356C34.4505 130.612 34.2836 130.995 34.1805 131.506C34.0816 132.018 34.0321 132.652 34.0321 133.411ZM46.7151 133.411C46.7151 134.141 46.6574 134.794 46.542 135.371C46.4307 135.944 46.2534 136.431 46.0102 136.831C45.7669 137.23 45.4495 137.536 45.0579 137.746C44.6662 137.956 44.1921 138.061 43.6356 138.061C42.9389 138.061 42.3638 137.878 41.9103 137.511C41.4568 137.14 41.1208 136.608 40.9024 135.915C40.6839 135.219 40.5746 134.384 40.5746 133.411C40.5746 132.438 40.6736 131.605 40.8714 130.913C41.0734 130.216 41.3991 129.682 41.8485 129.311C42.2978 128.94 42.8935 128.755 43.6356 128.755C44.3364 128.755 44.9136 128.94 45.3671 129.311C45.8247 129.678 46.1627 130.21 46.3812 130.907C46.6038 131.599 46.7151 132.434 46.7151 133.411ZM42.0402 133.411C42.0402 134.174 42.0896 134.811 42.1886 135.322C42.2916 135.833 42.4607 136.216 42.6957 136.472C42.9306 136.723 43.244 136.849 43.6356 136.849C44.0272 136.849 44.3405 136.723 44.5755 136.472C44.8105 136.22 44.9795 135.839 45.0826 135.328C45.1898 134.817 45.2434 134.178 45.2434 133.411C45.2434 132.652 45.1918 132.018 45.0888 131.506C44.9857 130.995 44.8167 130.612 44.5817 130.356C44.3467 130.096 44.0314 129.967 43.6356 129.967C43.2398 129.967 42.9245 130.096 42.6895 130.356C42.4586 130.612 42.2916 130.995 42.1886 131.506C42.0896 132.018 42.0402 132.652 42.0402 133.411Z" fill="#929292"/>
<path d="M19.2032 174.673V173.4C18.692 173.391 18.22 173.346 17.7871 173.263C17.3584 173.177 16.9873 173.066 16.674 172.93V171.612C16.9915 171.761 17.3831 171.895 17.849 172.014C18.3148 172.134 18.7662 172.202 19.2032 172.218V169.899C18.6054 169.697 18.119 169.487 17.7438 169.269C17.3728 169.05 17.1007 168.797 16.9276 168.508C16.7544 168.215 16.6679 167.865 16.6679 167.457C16.6679 167.036 16.773 166.676 16.9832 166.375C17.1976 166.07 17.4944 165.828 17.8737 165.651C18.2571 165.474 18.7003 165.369 19.2032 165.336V164.328H20.0071V165.317C20.4647 165.33 20.8873 165.381 21.2748 165.472C21.6664 165.558 22.0395 165.68 22.394 165.837L21.9426 166.987C21.6334 166.863 21.3119 166.762 20.978 166.684C20.644 166.606 20.3204 166.552 20.0071 166.523V168.786C20.51 168.951 20.9573 169.129 21.349 169.318C21.7447 169.508 22.0539 169.747 22.2766 170.036C22.5033 170.32 22.6167 170.693 22.6167 171.155C22.6167 171.761 22.394 172.262 21.9488 172.657C21.5036 173.049 20.8563 173.284 20.0071 173.362V174.673H19.2032ZM20.0071 172.169C20.4029 172.119 20.6976 172.016 20.8914 171.86C21.0851 171.699 21.182 171.491 21.182 171.235C21.182 171.062 21.1408 170.916 21.0583 170.796C20.98 170.677 20.8543 170.569 20.6811 170.475C20.5121 170.38 20.2874 170.287 20.0071 170.196V172.169ZM19.2032 168.483V166.548C18.9641 166.573 18.7621 166.622 18.5972 166.696C18.4323 166.77 18.3086 166.867 18.2262 166.987C18.1437 167.106 18.1025 167.249 18.1025 167.414C18.1025 167.595 18.1396 167.75 18.2138 167.877C18.288 168.005 18.4055 168.116 18.5663 168.211C18.7312 168.306 18.9435 168.397 19.2032 168.483ZM27.6503 168.286C28.2316 168.286 28.7428 168.391 29.1839 168.601C29.6292 168.807 29.9754 169.112 30.2228 169.516C30.4702 169.916 30.5938 170.407 30.5938 170.988C30.5938 171.623 30.4598 172.171 30.1919 172.633C29.9239 173.09 29.5302 173.443 29.0108 173.69C28.4913 173.938 27.8585 174.061 27.1124 174.061C26.6383 174.061 26.1951 174.02 25.7828 173.938C25.3747 173.855 25.0222 173.731 24.7254 173.566V172.256C25.0346 172.429 25.4056 172.571 25.8385 172.682C26.2714 172.789 26.6857 172.843 27.0814 172.843C27.5019 172.843 27.8627 172.781 28.1636 172.657C28.4645 172.534 28.6954 172.344 28.8562 172.089C29.0211 171.833 29.1035 171.509 29.1035 171.118C29.1035 170.598 28.9366 170.198 28.6026 169.918C28.2728 169.634 27.7555 169.491 27.0505 169.491C26.8032 169.491 26.5393 169.514 26.259 169.559C25.9828 169.601 25.7519 169.646 25.5664 169.695L24.9295 169.318L25.2696 164.897H29.9693V166.177H26.5496L26.3517 168.428C26.5002 168.395 26.6774 168.364 26.8836 168.335C27.0897 168.302 27.3453 168.286 27.6503 168.286ZM38.707 169.411C38.707 170.141 38.6493 170.794 38.5339 171.371C38.4226 171.944 38.2453 172.431 38.0021 172.831C37.7589 173.23 37.4414 173.536 37.0498 173.746C36.6581 173.956 36.1841 174.061 35.6275 174.061C34.9308 174.061 34.3557 173.878 33.9022 173.511C33.4488 173.14 33.1128 172.608 32.8943 171.915C32.6758 171.219 32.5665 170.384 32.5665 169.411C32.5665 168.438 32.6655 167.605 32.8634 166.913C33.0654 166.216 33.391 165.682 33.8404 165.311C34.2897 164.94 34.8855 164.755 35.6275 164.755C36.3283 164.755 36.9055 164.94 37.359 165.311C37.8166 165.678 38.1546 166.21 38.3731 166.907C38.5957 167.599 38.707 168.434 38.707 169.411ZM34.0321 169.411C34.0321 170.174 34.0816 170.811 34.1805 171.322C34.2836 171.833 34.4526 172.216 34.6876 172.472C34.9226 172.723 35.2359 172.849 35.6275 172.849C36.0191 172.849 36.3325 172.723 36.5674 172.472C36.8024 172.22 36.9715 171.839 37.0745 171.328C37.1817 170.817 37.2353 170.178 37.2353 169.411C37.2353 168.652 37.1838 168.018 37.0807 167.506C36.9776 166.995 36.8086 166.612 36.5736 166.356C36.3386 166.096 36.0233 165.967 35.6275 165.967C35.2317 165.967 34.9164 166.096 34.6814 166.356C34.4505 166.612 34.2836 166.995 34.1805 167.506C34.0816 168.018 34.0321 168.652 34.0321 169.411Z" fill="#929292"/>
<path d="M19.2032 210.673V209.4C18.692 209.391 18.22 209.346 17.7871 209.263C17.3584 209.177 16.9873 209.066 16.674 208.93V207.612C16.9915 207.761 17.3831 207.895 17.849 208.014C18.3148 208.134 18.7662 208.202 19.2032 208.218V205.899C18.6054 205.697 18.119 205.487 17.7438 205.269C17.3728 205.05 17.1007 204.797 16.9276 204.508C16.7544 204.215 16.6679 203.865 16.6679 203.457C16.6679 203.036 16.773 202.676 16.9832 202.375C17.1976 202.07 17.4944 201.828 17.8737 201.651C18.2571 201.474 18.7003 201.369 19.2032 201.336V200.328H20.0071V201.317C20.4647 201.33 20.8873 201.381 21.2748 201.472C21.6664 201.558 22.0395 201.68 22.394 201.837L21.9426 202.987C21.6334 202.863 21.3119 202.762 20.978 202.684C20.644 202.606 20.3204 202.552 20.0071 202.523V204.786C20.51 204.951 20.9573 205.129 21.349 205.318C21.7447 205.508 22.0539 205.747 22.2766 206.036C22.5033 206.32 22.6167 206.693 22.6167 207.155C22.6167 207.761 22.394 208.262 21.9488 208.657C21.5036 209.049 20.8563 209.284 20.0071 209.362V210.673H19.2032ZM20.0071 208.169C20.4029 208.119 20.6976 208.016 20.8914 207.86C21.0851 207.699 21.182 207.491 21.182 207.235C21.182 207.062 21.1408 206.916 21.0583 206.796C20.98 206.677 20.8543 206.569 20.6811 206.475C20.5121 206.38 20.2874 206.287 20.0071 206.196V208.169ZM19.2032 204.483V202.548C18.9641 202.573 18.7621 202.622 18.5972 202.696C18.4323 202.77 18.3086 202.867 18.2262 202.987C18.1437 203.106 18.1025 203.249 18.1025 203.414C18.1025 203.595 18.1396 203.75 18.2138 203.877C18.288 204.005 18.4055 204.116 18.5663 204.211C18.7312 204.306 18.9435 204.397 19.2032 204.483ZM30.699 205.411C30.699 206.141 30.6412 206.794 30.5258 207.371C30.4145 207.944 30.2372 208.431 29.994 208.831C29.7508 209.23 29.4333 209.536 29.0417 209.746C28.6501 209.956 28.176 210.061 27.6194 210.061C26.9227 210.061 26.3476 209.878 25.8941 209.511C25.4407 209.14 25.1047 208.608 24.8862 207.915C24.6677 207.219 24.5584 206.384 24.5584 205.411C24.5584 204.438 24.6574 203.605 24.8553 202.913C25.0573 202.216 25.3829 201.682 25.8323 201.311C26.2817 200.94 26.8774 200.755 27.6194 200.755C28.3203 200.755 28.8974 200.94 29.3509 201.311C29.8085 201.678 30.1465 202.21 30.365 202.907C30.5876 203.599 30.699 204.434 30.699 205.411ZM26.024 205.411C26.024 206.174 26.0735 206.811 26.1724 207.322C26.2755 207.833 26.4445 208.216 26.6795 208.472C26.9145 208.723 27.2278 208.849 27.6194 208.849C28.0111 208.849 28.3244 208.723 28.5594 208.472C28.7943 208.22 28.9634 207.839 29.0664 207.328C29.1736 206.817 29.2272 206.178 29.2272 205.411C29.2272 204.652 29.1757 204.018 29.0726 203.506C28.9696 202.995 28.8005 202.612 28.5655 202.356C28.3306 202.096 28.0152 201.967 27.6194 201.967C27.2237 201.967 26.9083 202.096 26.6733 202.356C26.4424 202.612 26.2755 202.995 26.1724 203.506C26.0735 204.018 26.024 204.652 26.024 205.411Z" fill="#929292"/>
<path d="M71 61.9375H414" stroke="#D9D9D9"/>
<path d="M71 25.9375H414" stroke="#D9D9D9"/>
<path d="M71 97.4375H414" stroke="#D9D9D9"/>
<path d="M71 132.938H414" stroke="#D9D9D9"/>
<path d="M71 168.938H414" stroke="#D9D9D9"/>
<path d="M71 204.938H414" stroke="#D9D9D9"/>
<rect x="71" y="198.938" width="12" height="6" fill="#0AA11D"/>
<rect x="77" y="197.938" width="1" height="1" fill="#0AA11D"/>
<rect x="86" y="197.938" width="8" height="2" fill="#E20D0D"/>
<rect x="90" y="195.938" width="1" height="2" fill="#E20D0D"/>
<rect x="117" y="197.938" width="8" height="1" fill="#E20D0D"/>
<rect x="121.25" y="197.188" width="0.5" height="0.5" fill="#E20D0D" stroke="#E20D0D" stroke-width="0.5"/>
<rect x="132" y="197.938" width="8" height="1" fill="#E20D0D"/>
<rect x="136" y="196.938" width="1" height="1" fill="#E20D0D"/>
<rect x="176" y="198.938" width="8" height="2" fill="#E20D0D"/>
<rect x="180.25" y="198.188" width="0.5" height="0.5" fill="#E20D0D" stroke="#E20D0D" stroke-width="0.5"/>
<rect x="102" y="197.005" width="8" height="0.984756" fill="#E20D0D"/>
<rect x="106.25" y="195.188" width="0.5" height="2.5" fill="#E20D0D" stroke="#E20D0D" stroke-width="0.5"/>
<rect x="192" y="199.959" width="8" height="0.984756" fill="#E20D0D"/>
<rect x="196.25" y="199.188" width="0.5" height="0.977134" fill="#E20D0D" stroke="#E20D0D" stroke-width="0.5"/>
<rect x="253" y="196.512" width="8" height="0.984756" fill="#0AA11D"/>
<rect x="257" y="194.543" width="1" height="3.44665" fill="#0AA11D"/>
<rect width="8" height="0.984756" transform="matrix(1 0 0 -1 268 196.512)" fill="#0AA11D"/>
<rect width="1" height="3.44665" transform="matrix(1 0 0 -1 272 197.989)" fill="#0AA11D"/>
<rect width="8" height="1.96951" transform="matrix(1 0 0 -1 282 194.543)" fill="#0AA11D"/>
<rect width="1" height="4.4314" transform="matrix(1 0 0 -1 286 196.02)" fill="#0AA11D"/>
<rect x="207" y="200.451" width="8" height="1.96951" fill="#E20D0D"/>
<rect x="211.25" y="199.716" width="0.5" height="3.43902" fill="#E20D0D" stroke="#E20D0D" stroke-width="0.5"/>
<rect x="328" y="165.684" width="8" height="3.44665" fill="#E20D0D"/>
<rect x="332" y="158.791" width="1" height="12.8018" fill="#E20D0D"/>
<rect x="358" y="149.436" width="8" height="2.95427" fill="#E20D0D"/>
<rect x="362.25" y="142.3" width="0.5" height="12.3018" fill="#E20D0D" stroke="#E20D0D" stroke-width="0.5"/>
<rect x="146" y="199.466" width="8" height="0.492378" fill="#0AA11D"/>
<rect x="150" y="199.466" width="1" height="2.95427" fill="#0AA11D"/>
<rect x="161" y="197.497" width="8" height="2.46189" fill="#0AA11D"/>
<rect x="165" y="197.497" width="1" height="3.44665" fill="#0AA11D"/>
<rect x="222" y="200.451" width="8" height="3.44665" fill="#0AA11D"/>
<rect x="226.25" y="198.732" width="0.5" height="3.43902" fill="#0AA11D" stroke="#0AA11D" stroke-width="0.5"/>
<rect width="8" height="3.44665" transform="matrix(1 0 0 -1 237 200.944)" fill="#0AA11D"/>
<rect width="1" height="1" transform="matrix(1 0 0 -1 241 201.938)" fill="#0AA11D"/>
<rect width="8" height="5.90854" transform="matrix(1 0 0 -1 297 193.065)" fill="#0AA11D"/>
<rect width="1" height="1.47713" transform="matrix(1 0 0 -1 301 194.543)" fill="#0AA11D"/>
<rect width="1" height="1.96951" transform="matrix(1 0 0 -1 301 187.157)" fill="#0AA11D"/>
<rect width="8" height="27.5732" transform="matrix(1 0 0 -1 312 194.735)" fill="#0AA11D"/>
<rect width="1" height="1.47713" transform="matrix(1 0 0 -1 316 167.162)" fill="#0AA11D"/>
<rect width="8" height="11.3247" transform="matrix(1 0 0 -1 373 153.867)" fill="#0AA11D"/>
<rect width="1" height="1.47713" transform="matrix(1 0 0 -1 377 142.543)" fill="#0AA11D"/>
<rect width="8" height="1" transform="matrix(1 0 0 -1 390 139.938)" fill="#0AA11D"/>
<rect width="1" height="10.8323" transform="matrix(1 0 0 -1 394 148.77)" fill="#0AA11D"/>
<rect width="8" height="4.4314" transform="matrix(1 0 0 -1 406 140.081)" fill="#0AA11D"/>
<rect width="1" height="8.86281" transform="matrix(1 0 0 -1 410 142.05)" fill="#0AA11D"/>
<rect x="343" y="154.36" width="8" height="16.2485" fill="#0AA11D"/>
<rect x="347" y="170.608" width="1" height="1.96951" fill="#0AA11D"/>
</svg>
