<svg width="430" height="229" viewBox="0 0 430 229" fill="none" xmlns="http://www.w3.org/2000/svg">
<rect width="430" height="229" rx="10" fill="black" fill-opacity="0.03"/>
<path d="M19.2032 29.7359V28.462C18.692 28.4538 18.22 28.4084 17.7871 28.326C17.3584 28.2394 16.9873 28.1281 16.674 27.992V26.6749C16.9915 26.8233 17.3831 26.9573 17.849 27.0768C18.3148 27.1964 18.7662 27.2644 19.2032 27.2809V24.962C18.6054 24.76 18.119 24.5497 17.7438 24.3312C17.3728 24.1127 17.1007 23.8592 16.9276 23.5706C16.7544 23.2779 16.6679 22.9275 16.6679 22.5194C16.6679 22.0989 16.773 21.7382 16.9832 21.4372C17.1976 21.1321 17.4944 20.891 17.8737 20.7137C18.2571 20.5364 18.7003 20.4313 19.2032 20.3983V19.3904H20.0071V20.3798C20.4647 20.3922 20.8873 20.4437 21.2748 20.5344C21.6664 20.621 22.0395 20.7426 22.394 20.8992L21.9426 22.0494C21.6334 21.9257 21.3119 21.8247 20.978 21.7464C20.644 21.6681 20.3204 21.6145 20.0071 21.5856V23.8489C20.51 24.0138 20.9573 24.1911 21.349 24.3807C21.7447 24.5703 22.0539 24.8094 22.2766 25.098C22.5033 25.3825 22.6167 25.7556 22.6167 26.2173C22.6167 26.8233 22.394 27.3242 21.9488 27.72C21.5036 28.1116 20.8563 28.3466 20.0071 28.4249V29.7359H19.2032ZM20.0071 27.2314C20.4029 27.182 20.6976 27.0789 20.8914 26.9222C21.0851 26.7615 21.182 26.5533 21.182 26.2977C21.182 26.1245 21.1408 25.9782 21.0583 25.8586C20.98 25.7391 20.8543 25.6319 20.6811 25.5371C20.5121 25.4423 20.2874 25.3495 20.0071 25.2588V27.2314ZM19.2032 23.5459V21.6104C18.9641 21.6351 18.7621 21.6846 18.5972 21.7588C18.4323 21.833 18.3086 21.9299 18.2262 22.0494C18.1437 22.169 18.1025 22.3112 18.1025 22.4761C18.1025 22.6575 18.1396 22.8121 18.2138 22.9399C18.288 23.0677 18.4055 23.179 18.5663 23.2738C18.7312 23.3686 18.9435 23.4593 19.2032 23.5459ZM28.85 29H27.3906V23.181C27.3906 22.9873 27.3927 22.7935 27.3968 22.5998C27.4009 22.406 27.4051 22.2164 27.4092 22.0309C27.4174 21.8453 27.4277 21.6681 27.4401 21.4991C27.3535 21.5939 27.2463 21.6969 27.1185 21.8082C26.9949 21.9196 26.8629 22.035 26.7228 22.1545L25.6839 22.9832L24.9542 22.0618L27.638 19.9593H28.85V29ZM38.707 29H32.5851V27.9055L34.9287 25.5309C35.3822 25.0692 35.7553 24.6713 36.048 24.3374C36.3407 23.9994 36.5571 23.6799 36.6973 23.3789C36.8416 23.078 36.9137 22.7502 36.9137 22.3957C36.9137 21.9587 36.788 21.6289 36.5365 21.4063C36.2851 21.1796 35.9532 21.0662 35.5409 21.0662C35.1493 21.0662 34.7865 21.1445 34.4526 21.3012C34.1228 21.4537 33.7806 21.6722 33.4261 21.9567L32.6284 20.9982C32.8798 20.7838 33.1478 20.588 33.4323 20.4107C33.7208 20.2334 34.0424 20.0933 34.3969 19.9902C34.7515 19.883 35.1555 19.8294 35.609 19.8294C36.182 19.8294 36.6767 19.9325 37.0931 20.1386C37.5094 20.3406 37.8289 20.623 38.0516 20.9858C38.2783 21.3486 38.3917 21.7711 38.3917 22.2535C38.3917 22.7399 38.2948 23.1893 38.101 23.6015C37.9073 24.0138 37.6311 24.4219 37.2724 24.8259C36.9137 25.2258 36.4871 25.6607 35.9924 26.1307L34.4279 27.6581V27.7261H38.707V29ZM46.7151 24.4735C46.7151 25.2031 46.6574 25.8566 46.542 26.4337C46.4307 27.0068 46.2534 27.4932 46.0102 27.8931C45.7669 28.293 45.4495 28.5981 45.0579 28.8083C44.6662 29.0186 44.1921 29.1237 43.6356 29.1237C42.9389 29.1237 42.3638 28.9402 41.9103 28.5733C41.4568 28.2023 41.1208 27.6705 40.9024 26.9779C40.6839 26.2812 40.5746 25.4464 40.5746 24.4735C40.5746 23.5005 40.6736 22.6678 40.8714 21.9752C41.0734 21.2785 41.3991 20.7446 41.8485 20.3736C42.2978 20.0026 42.8935 19.8171 43.6356 19.8171C44.3364 19.8171 44.9136 20.0026 45.3671 20.3736C45.8247 20.7405 46.1627 21.2723 46.3812 21.969C46.6038 22.6616 46.7151 23.4964 46.7151 24.4735ZM42.0402 24.4735C42.0402 25.2361 42.0896 25.8731 42.1886 26.3843C42.2916 26.8954 42.4607 27.2788 42.6957 27.5344C42.9306 27.7859 43.244 27.9117 43.6356 27.9117C44.0272 27.9117 44.3405 27.7859 44.5755 27.5344C44.8105 27.283 44.9795 26.9016 45.0826 26.3904C45.1898 25.8792 45.2434 25.2403 45.2434 24.4735C45.2434 23.7149 45.1918 23.08 45.0888 22.5689C44.9857 22.0577 44.8167 21.6743 44.5817 21.4187C44.3467 21.1589 44.0314 21.0291 43.6356 21.0291C43.2398 21.0291 42.9245 21.1589 42.6895 21.4187C42.4586 21.6743 42.2916 22.0577 42.1886 22.5689C42.0896 23.08 42.0402 23.7149 42.0402 24.4735ZM54.7232 24.4735C54.7232 25.2031 54.6655 25.8566 54.5501 26.4337C54.4388 27.0068 54.2615 27.4932 54.0183 27.8931C53.775 28.293 53.4576 28.5981 53.066 28.8083C52.6743 29.0186 52.2002 29.1237 51.6437 29.1237C50.947 29.1237 50.3719 28.9402 49.9184 28.5733C49.4649 28.2023 49.1289 27.6705 48.9104 26.9779C48.6919 26.2812 48.5827 25.4464 48.5827 24.4735C48.5827 23.5005 48.6816 22.6678 48.8795 21.9752C49.0815 21.2785 49.4072 20.7446 49.8566 20.3736C50.3059 20.0026 50.9016 19.8171 51.6437 19.8171C52.3445 19.8171 52.9217 20.0026 53.3751 20.3736C53.8327 20.7405 54.1708 21.2723 54.3893 21.969C54.6119 22.6616 54.7232 23.4964 54.7232 24.4735ZM50.0483 24.4735C50.0483 25.2361 50.0977 25.8731 50.1967 26.3843C50.2997 26.8954 50.4688 27.2788 50.7037 27.5344C50.9387 27.7859 51.252 27.9117 51.6437 27.9117C52.0353 27.9117 52.3486 27.7859 52.5836 27.5344C52.8186 27.283 52.9876 26.9016 53.0907 26.3904C53.1979 25.8792 53.2515 25.2403 53.2515 24.4735C53.2515 23.7149 53.1999 23.08 53.0969 22.5689C52.9938 22.0577 52.8248 21.6743 52.5898 21.4187C52.3548 21.1589 52.0394 21.0291 51.6437 21.0291C51.2479 21.0291 50.9325 21.1589 50.6976 21.4187C50.4667 21.6743 50.2997 22.0577 50.1967 22.5689C50.0977 23.08 50.0483 23.7149 50.0483 24.4735Z" fill="#929292"/>
<path d="M19.2032 65.7359V64.462C18.692 64.4538 18.22 64.4084 17.7871 64.326C17.3584 64.2394 16.9873 64.1281 16.674 63.992V62.6749C16.9915 62.8233 17.3831 62.9573 17.849 63.0768C18.3148 63.1964 18.7662 63.2644 19.2032 63.2809V60.962C18.6054 60.76 18.119 60.5497 17.7438 60.3312C17.3728 60.1127 17.1007 59.8592 16.9276 59.5706C16.7544 59.2779 16.6679 58.9275 16.6679 58.5194C16.6679 58.0989 16.773 57.7382 16.9832 57.4372C17.1976 57.1321 17.4944 56.891 17.8737 56.7137C18.2571 56.5364 18.7003 56.4313 19.2032 56.3983V55.3904H20.0071V56.3798C20.4647 56.3922 20.8873 56.4437 21.2748 56.5344C21.6664 56.621 22.0395 56.7426 22.394 56.8992L21.9426 58.0494C21.6334 57.9257 21.3119 57.8247 20.978 57.7464C20.644 57.6681 20.3204 57.6145 20.0071 57.5856V59.8489C20.51 60.0138 20.9573 60.1911 21.349 60.3807C21.7447 60.5703 22.0539 60.8094 22.2766 61.098C22.5033 61.3825 22.6167 61.7556 22.6167 62.2173C22.6167 62.8233 22.394 63.3242 21.9488 63.72C21.5036 64.1116 20.8563 64.3466 20.0071 64.4249V65.7359H19.2032ZM20.0071 63.2314C20.4029 63.182 20.6976 63.0789 20.8914 62.9222C21.0851 62.7615 21.182 62.5533 21.182 62.2977C21.182 62.1245 21.1408 61.9782 21.0583 61.8586C20.98 61.7391 20.8543 61.6319 20.6811 61.5371C20.5121 61.4423 20.2874 61.3495 20.0071 61.2588V63.2314ZM19.2032 59.5459V57.6104C18.9641 57.6351 18.7621 57.6846 18.5972 57.7588C18.4323 57.833 18.3086 57.9299 18.2262 58.0494C18.1437 58.169 18.1025 58.3112 18.1025 58.4761C18.1025 58.6575 18.1396 58.8121 18.2138 58.9399C18.288 59.0677 18.4055 59.179 18.5663 59.2738C18.7312 59.3686 18.9435 59.4593 19.2032 59.5459ZM28.85 65H27.3906V59.181C27.3906 58.9873 27.3927 58.7935 27.3968 58.5998C27.4009 58.406 27.4051 58.2164 27.4092 58.0309C27.4174 57.8453 27.4277 57.6681 27.4401 57.4991C27.3535 57.5939 27.2463 57.6969 27.1185 57.8082C26.9949 57.9196 26.8629 58.035 26.7228 58.1545L25.6839 58.9832L24.9542 58.0618L27.638 55.9593H28.85V65ZM38.707 60.4735C38.707 61.2031 38.6493 61.8566 38.5339 62.4337C38.4226 63.0068 38.2453 63.4932 38.0021 63.8931C37.7589 64.293 37.4414 64.5981 37.0498 64.8083C36.6581 65.0186 36.1841 65.1237 35.6275 65.1237C34.9308 65.1237 34.3557 64.9402 33.9022 64.5733C33.4488 64.2023 33.1128 63.6705 32.8943 62.9779C32.6758 62.2812 32.5665 61.4464 32.5665 60.4735C32.5665 59.5005 32.6655 58.6678 32.8634 57.9752C33.0654 57.2785 33.391 56.7446 33.8404 56.3736C34.2897 56.0026 34.8855 55.8171 35.6275 55.8171C36.3283 55.8171 36.9055 56.0026 37.359 56.3736C37.8166 56.7405 38.1546 57.2723 38.3731 57.969C38.5957 58.6616 38.707 59.4964 38.707 60.4735ZM34.0321 60.4735C34.0321 61.2361 34.0816 61.8731 34.1805 62.3843C34.2836 62.8954 34.4526 63.2788 34.6876 63.5344C34.9226 63.7859 35.2359 63.9117 35.6275 63.9117C36.0191 63.9117 36.3325 63.7859 36.5674 63.5344C36.8024 63.283 36.9715 62.9016 37.0745 62.3904C37.1817 61.8792 37.2353 61.2403 37.2353 60.4735C37.2353 59.7149 37.1838 59.08 37.0807 58.5689C36.9776 58.0577 36.8086 57.6743 36.5736 57.4187C36.3386 57.1589 36.0233 57.0291 35.6275 57.0291C35.2317 57.0291 34.9164 57.1589 34.6814 57.4187C34.4505 57.6743 34.2836 58.0577 34.1805 58.5689C34.0816 59.08 34.0321 59.7149 34.0321 60.4735ZM46.7151 60.4735C46.7151 61.2031 46.6574 61.8566 46.542 62.4337C46.4307 63.0068 46.2534 63.4932 46.0102 63.8931C45.7669 64.293 45.4495 64.5981 45.0579 64.8083C44.6662 65.0186 44.1921 65.1237 43.6356 65.1237C42.9389 65.1237 42.3638 64.9402 41.9103 64.5733C41.4568 64.2023 41.1208 63.6705 40.9024 62.9779C40.6839 62.2812 40.5746 61.4464 40.5746 60.4735C40.5746 59.5005 40.6736 58.6678 40.8714 57.9752C41.0734 57.2785 41.3991 56.7446 41.8485 56.3736C42.2978 56.0026 42.8935 55.8171 43.6356 55.8171C44.3364 55.8171 44.9136 56.0026 45.3671 56.3736C45.8247 56.7405 46.1627 57.2723 46.3812 57.969C46.6038 58.6616 46.7151 59.4964 46.7151 60.4735ZM42.0402 60.4735C42.0402 61.2361 42.0896 61.8731 42.1886 62.3843C42.2916 62.8954 42.4607 63.2788 42.6957 63.5344C42.9306 63.7859 43.244 63.9117 43.6356 63.9117C44.0272 63.9117 44.3405 63.7859 44.5755 63.5344C44.8105 63.283 44.9795 62.9016 45.0826 62.3904C45.1898 61.8792 45.2434 61.2403 45.2434 60.4735C45.2434 59.7149 45.1918 59.08 45.0888 58.5689C44.9857 58.0577 44.8167 57.6743 44.5817 57.4187C44.3467 57.1589 44.0314 57.0291 43.6356 57.0291C43.2398 57.0291 42.9245 57.1589 42.6895 57.4187C42.4586 57.6743 42.2916 58.0577 42.1886 58.5689C42.0896 59.08 42.0402 59.7149 42.0402 60.4735ZM54.7232 60.4735C54.7232 61.2031 54.6655 61.8566 54.5501 62.4337C54.4388 63.0068 54.2615 63.4932 54.0183 63.8931C53.775 64.293 53.4576 64.5981 53.066 64.8083C52.6743 65.0186 52.2002 65.1237 51.6437 65.1237C50.947 65.1237 50.3719 64.9402 49.9184 64.5733C49.4649 64.2023 49.1289 63.6705 48.9104 62.9779C48.6919 62.2812 48.5827 61.4464 48.5827 60.4735C48.5827 59.5005 48.6816 58.6678 48.8795 57.9752C49.0815 57.2785 49.4072 56.7446 49.8566 56.3736C50.3059 56.0026 50.9016 55.8171 51.6437 55.8171C52.3445 55.8171 52.9217 56.0026 53.3751 56.3736C53.8327 56.7405 54.1708 57.2723 54.3893 57.969C54.6119 58.6616 54.7232 59.4964 54.7232 60.4735ZM50.0483 60.4735C50.0483 61.2361 50.0977 61.8731 50.1967 62.3843C50.2997 62.8954 50.4688 63.2788 50.7037 63.5344C50.9387 63.7859 51.252 63.9117 51.6437 63.9117C52.0353 63.9117 52.3486 63.7859 52.5836 63.5344C52.8186 63.283 52.9876 62.9016 53.0907 62.3904C53.1979 61.8792 53.2515 61.2403 53.2515 60.4735C53.2515 59.7149 53.1999 59.08 53.0969 58.5689C52.9938 58.0577 52.8248 57.6743 52.5898 57.4187C52.3548 57.1589 52.0394 57.0291 51.6437 57.0291C51.2479 57.0291 50.9325 57.1589 50.6976 57.4187C50.4667 57.6743 50.2997 58.0577 50.1967 58.5689C50.0977 59.08 50.0483 59.7149 50.0483 60.4735Z" fill="#929292"/>
<path d="M19.2032 101.736V100.462C18.692 100.454 18.22 100.408 17.7871 100.326C17.3584 100.239 16.9873 100.128 16.674 99.992V98.6749C16.9915 98.8233 17.3831 98.9573 17.849 99.0768C18.3148 99.1964 18.7662 99.2644 19.2032 99.2809V96.962C18.6054 96.76 18.119 96.5497 17.7438 96.3312C17.3728 96.1127 17.1007 95.8592 16.9276 95.5706C16.7544 95.2779 16.6679 94.9275 16.6679 94.5194C16.6679 94.0989 16.773 93.7382 16.9832 93.4372C17.1976 93.1321 17.4944 92.891 17.8737 92.7137C18.2571 92.5364 18.7003 92.4313 19.2032 92.3983V91.3904H20.0071V92.3798C20.4647 92.3922 20.8873 92.4437 21.2748 92.5344C21.6664 92.621 22.0395 92.7426 22.394 92.8992L21.9426 94.0494C21.6334 93.9257 21.3119 93.8247 20.978 93.7464C20.644 93.6681 20.3204 93.6145 20.0071 93.5856V95.8489C20.51 96.0138 20.9573 96.1911 21.349 96.3807C21.7447 96.5703 22.0539 96.8094 22.2766 97.098C22.5033 97.3825 22.6167 97.7556 22.6167 98.2173C22.6167 98.8233 22.394 99.3242 21.9488 99.72C21.5036 100.112 20.8563 100.347 20.0071 100.425V101.736H19.2032ZM20.0071 99.2314C20.4029 99.182 20.6976 99.0789 20.8914 98.9222C21.0851 98.7615 21.182 98.5533 21.182 98.2977C21.182 98.1245 21.1408 97.9782 21.0583 97.8586C20.98 97.7391 20.8543 97.6319 20.6811 97.5371C20.5121 97.4423 20.2874 97.3495 20.0071 97.2588V99.2314ZM19.2032 95.5459V93.6104C18.9641 93.6351 18.7621 93.6846 18.5972 93.7588C18.4323 93.833 18.3086 93.9299 18.2262 94.0494C18.1437 94.169 18.1025 94.3112 18.1025 94.4761C18.1025 94.6575 18.1396 94.8121 18.2138 94.9399C18.288 95.0677 18.4055 95.179 18.5663 95.2738C18.7312 95.3686 18.9435 95.4593 19.2032 95.5459ZM27.6503 95.348C28.2316 95.348 28.7428 95.4531 29.1839 95.6634C29.6292 95.8695 29.9754 96.1746 30.2228 96.5786C30.4702 96.9785 30.5938 97.4691 30.5938 98.0503C30.5938 98.6852 30.4598 99.2335 30.1919 99.6952C29.9239 100.153 29.5302 100.505 29.0108 100.753C28.4913 101 27.8585 101.124 27.1124 101.124C26.6383 101.124 26.1951 101.082 25.7828 101C25.3747 100.918 25.0222 100.794 24.7254 100.629V99.318C25.0346 99.4912 25.4056 99.6334 25.8385 99.7447C26.2714 99.8519 26.6857 99.9055 27.0814 99.9055C27.5019 99.9055 27.8627 99.8436 28.1636 99.72C28.4645 99.5963 28.6954 99.4066 28.8562 99.151C29.0211 98.8954 29.1035 98.5718 29.1035 98.1802C29.1035 97.6607 28.9366 97.2609 28.6026 96.9805C28.2728 96.6961 27.7555 96.5538 27.0505 96.5538C26.8032 96.5538 26.5393 96.5765 26.259 96.6219C25.9828 96.6631 25.7519 96.7084 25.5664 96.7579L24.9295 96.3807L25.2696 91.9593H29.9693V93.2393H26.5496L26.3517 95.4902C26.5002 95.4573 26.6774 95.4263 26.8836 95.3975C27.0897 95.3645 27.3453 95.348 27.6503 95.348ZM38.707 96.4735C38.707 97.2031 38.6493 97.8566 38.5339 98.4337C38.4226 99.0068 38.2453 99.4932 38.0021 99.8931C37.7589 100.293 37.4414 100.598 37.0498 100.808C36.6581 101.019 36.1841 101.124 35.6275 101.124C34.9308 101.124 34.3557 100.94 33.9022 100.573C33.4488 100.202 33.1128 99.6705 32.8943 98.9779C32.6758 98.2812 32.5665 97.4464 32.5665 96.4735C32.5665 95.5005 32.6655 94.6678 32.8634 93.9752C33.0654 93.2785 33.391 92.7446 33.8404 92.3736C34.2897 92.0026 34.8855 91.8171 35.6275 91.8171C36.3283 91.8171 36.9055 92.0026 37.359 92.3736C37.8166 92.7405 38.1546 93.2723 38.3731 93.969C38.5957 94.6616 38.707 95.4964 38.707 96.4735ZM34.0321 96.4735C34.0321 97.2361 34.0816 97.8731 34.1805 98.3843C34.2836 98.8954 34.4526 99.2788 34.6876 99.5344C34.9226 99.7859 35.2359 99.9117 35.6275 99.9117C36.0191 99.9117 36.3325 99.7859 36.5674 99.5344C36.8024 99.283 36.9715 98.9016 37.0745 98.3904C37.1817 97.8792 37.2353 97.2403 37.2353 96.4735C37.2353 95.7149 37.1838 95.08 37.0807 94.5689C36.9776 94.0577 36.8086 93.6743 36.5736 93.4187C36.3386 93.1589 36.0233 93.0291 35.6275 93.0291C35.2317 93.0291 34.9164 93.1589 34.6814 93.4187C34.4505 93.6743 34.2836 94.0577 34.1805 94.5689C34.0816 95.08 34.0321 95.7149 34.0321 96.4735ZM46.7151 96.4735C46.7151 97.2031 46.6574 97.8566 46.542 98.4337C46.4307 99.0068 46.2534 99.4932 46.0102 99.8931C45.7669 100.293 45.4495 100.598 45.0579 100.808C44.6662 101.019 44.1921 101.124 43.6356 101.124C42.9389 101.124 42.3638 100.94 41.9103 100.573C41.4568 100.202 41.1208 99.6705 40.9024 98.9779C40.6839 98.2812 40.5746 97.4464 40.5746 96.4735C40.5746 95.5005 40.6736 94.6678 40.8714 93.9752C41.0734 93.2785 41.3991 92.7446 41.8485 92.3736C42.2978 92.0026 42.8935 91.8171 43.6356 91.8171C44.3364 91.8171 44.9136 92.0026 45.3671 92.3736C45.8247 92.7405 46.1627 93.2723 46.3812 93.969C46.6038 94.6616 46.7151 95.4964 46.7151 96.4735ZM42.0402 96.4735C42.0402 97.2361 42.0896 97.8731 42.1886 98.3843C42.2916 98.8954 42.4607 99.2788 42.6957 99.5344C42.9306 99.7859 43.244 99.9117 43.6356 99.9117C44.0272 99.9117 44.3405 99.7859 44.5755 99.5344C44.8105 99.283 44.9795 98.9016 45.0826 98.3904C45.1898 97.8792 45.2434 97.2403 45.2434 96.4735C45.2434 95.7149 45.1918 95.08 45.0888 94.5689C44.9857 94.0577 44.8167 93.6743 44.5817 93.4187C44.3467 93.1589 44.0314 93.0291 43.6356 93.0291C43.2398 93.0291 42.9245 93.1589 42.6895 93.4187C42.4586 93.6743 42.2916 94.0577 42.1886 94.5689C42.0896 95.08 42.0402 95.7149 42.0402 96.4735Z" fill="#929292"/>
<path d="M19.2032 137.736V136.462C18.692 136.454 18.22 136.408 17.7871 136.326C17.3584 136.239 16.9873 136.128 16.674 135.992V134.675C16.9915 134.823 17.3831 134.957 17.849 135.077C18.3148 135.196 18.7662 135.264 19.2032 135.281V132.962C18.6054 132.76 18.119 132.55 17.7438 132.331C17.3728 132.113 17.1007 131.859 16.9276 131.571C16.7544 131.278 16.6679 130.928 16.6679 130.519C16.6679 130.099 16.773 129.738 16.9832 129.437C17.1976 129.132 17.4944 128.891 17.8737 128.714C18.2571 128.536 18.7003 128.431 19.2032 128.398V127.39H20.0071V128.38C20.4647 128.392 20.8873 128.444 21.2748 128.534C21.6664 128.621 22.0395 128.743 22.394 128.899L21.9426 130.049C21.6334 129.926 21.3119 129.825 20.978 129.746C20.644 129.668 20.3204 129.614 20.0071 129.586V131.849C20.51 132.014 20.9573 132.191 21.349 132.381C21.7447 132.57 22.0539 132.809 22.2766 133.098C22.5033 133.382 22.6167 133.756 22.6167 134.217C22.6167 134.823 22.394 135.324 21.9488 135.72C21.5036 136.112 20.8563 136.347 20.0071 136.425V137.736H19.2032ZM20.0071 135.231C20.4029 135.182 20.6976 135.079 20.8914 134.922C21.0851 134.761 21.182 134.553 21.182 134.298C21.182 134.125 21.1408 133.978 21.0583 133.859C20.98 133.739 20.8543 133.632 20.6811 133.537C20.5121 133.442 20.2874 133.349 20.0071 133.259V135.231ZM19.2032 131.546V129.61C18.9641 129.635 18.7621 129.685 18.5972 129.759C18.4323 129.833 18.3086 129.93 18.2262 130.049C18.1437 130.169 18.1025 130.311 18.1025 130.476C18.1025 130.657 18.1396 130.812 18.2138 130.94C18.288 131.068 18.4055 131.179 18.5663 131.274C18.7312 131.369 18.9435 131.459 19.2032 131.546ZM28.85 137H27.3906V131.181C27.3906 130.987 27.3927 130.794 27.3968 130.6C27.4009 130.406 27.4051 130.216 27.4092 130.031C27.4174 129.845 27.4277 129.668 27.4401 129.499C27.3535 129.594 27.2463 129.697 27.1185 129.808C26.9949 129.92 26.8629 130.035 26.7228 130.155L25.6839 130.983L24.9542 130.062L27.638 127.959H28.85V137ZM38.707 132.473C38.707 133.203 38.6493 133.857 38.5339 134.434C38.4226 135.007 38.2453 135.493 38.0021 135.893C37.7589 136.293 37.4414 136.598 37.0498 136.808C36.6581 137.019 36.1841 137.124 35.6275 137.124C34.9308 137.124 34.3557 136.94 33.9022 136.573C33.4488 136.202 33.1128 135.67 32.8943 134.978C32.6758 134.281 32.5665 133.446 32.5665 132.473C32.5665 131.501 32.6655 130.668 32.8634 129.975C33.0654 129.278 33.391 128.745 33.8404 128.374C34.2897 128.003 34.8855 127.817 35.6275 127.817C36.3283 127.817 36.9055 128.003 37.359 128.374C37.8166 128.741 38.1546 129.272 38.3731 129.969C38.5957 130.662 38.707 131.496 38.707 132.473ZM34.0321 132.473C34.0321 133.236 34.0816 133.873 34.1805 134.384C34.2836 134.895 34.4526 135.279 34.6876 135.534C34.9226 135.786 35.2359 135.912 35.6275 135.912C36.0191 135.912 36.3325 135.786 36.5674 135.534C36.8024 135.283 36.9715 134.902 37.0745 134.39C37.1817 133.879 37.2353 133.24 37.2353 132.473C37.2353 131.715 37.1838 131.08 37.0807 130.569C36.9776 130.058 36.8086 129.674 36.5736 129.419C36.3386 129.159 36.0233 129.029 35.6275 129.029C35.2317 129.029 34.9164 129.159 34.6814 129.419C34.4505 129.674 34.2836 130.058 34.1805 130.569C34.0816 131.08 34.0321 131.715 34.0321 132.473ZM46.7151 132.473C46.7151 133.203 46.6574 133.857 46.542 134.434C46.4307 135.007 46.2534 135.493 46.0102 135.893C45.7669 136.293 45.4495 136.598 45.0579 136.808C44.6662 137.019 44.1921 137.124 43.6356 137.124C42.9389 137.124 42.3638 136.94 41.9103 136.573C41.4568 136.202 41.1208 135.67 40.9024 134.978C40.6839 134.281 40.5746 133.446 40.5746 132.473C40.5746 131.501 40.6736 130.668 40.8714 129.975C41.0734 129.278 41.3991 128.745 41.8485 128.374C42.2978 128.003 42.8935 127.817 43.6356 127.817C44.3364 127.817 44.9136 128.003 45.3671 128.374C45.8247 128.741 46.1627 129.272 46.3812 129.969C46.6038 130.662 46.7151 131.496 46.7151 132.473ZM42.0402 132.473C42.0402 133.236 42.0896 133.873 42.1886 134.384C42.2916 134.895 42.4607 135.279 42.6957 135.534C42.9306 135.786 43.244 135.912 43.6356 135.912C44.0272 135.912 44.3405 135.786 44.5755 135.534C44.8105 135.283 44.9795 134.902 45.0826 134.39C45.1898 133.879 45.2434 133.24 45.2434 132.473C45.2434 131.715 45.1918 131.08 45.0888 130.569C44.9857 130.058 44.8167 129.674 44.5817 129.419C44.3467 129.159 44.0314 129.029 43.6356 129.029C43.2398 129.029 42.9245 129.159 42.6895 129.419C42.4586 129.674 42.2916 130.058 42.1886 130.569C42.0896 131.08 42.0402 131.715 42.0402 132.473Z" fill="#929292"/>
<path d="M19.2032 173.736V172.462C18.692 172.454 18.22 172.408 17.7871 172.326C17.3584 172.239 16.9873 172.128 16.674 171.992V170.675C16.9915 170.823 17.3831 170.957 17.849 171.077C18.3148 171.196 18.7662 171.264 19.2032 171.281V168.962C18.6054 168.76 18.119 168.55 17.7438 168.331C17.3728 168.113 17.1007 167.859 16.9276 167.571C16.7544 167.278 16.6679 166.928 16.6679 166.519C16.6679 166.099 16.773 165.738 16.9832 165.437C17.1976 165.132 17.4944 164.891 17.8737 164.714C18.2571 164.536 18.7003 164.431 19.2032 164.398V163.39H20.0071V164.38C20.4647 164.392 20.8873 164.444 21.2748 164.534C21.6664 164.621 22.0395 164.743 22.394 164.899L21.9426 166.049C21.6334 165.926 21.3119 165.825 20.978 165.746C20.644 165.668 20.3204 165.614 20.0071 165.586V167.849C20.51 168.014 20.9573 168.191 21.349 168.381C21.7447 168.57 22.0539 168.809 22.2766 169.098C22.5033 169.382 22.6167 169.756 22.6167 170.217C22.6167 170.823 22.394 171.324 21.9488 171.72C21.5036 172.112 20.8563 172.347 20.0071 172.425V173.736H19.2032ZM20.0071 171.231C20.4029 171.182 20.6976 171.079 20.8914 170.922C21.0851 170.761 21.182 170.553 21.182 170.298C21.182 170.125 21.1408 169.978 21.0583 169.859C20.98 169.739 20.8543 169.632 20.6811 169.537C20.5121 169.442 20.2874 169.349 20.0071 169.259V171.231ZM19.2032 167.546V165.61C18.9641 165.635 18.7621 165.685 18.5972 165.759C18.4323 165.833 18.3086 165.93 18.2262 166.049C18.1437 166.169 18.1025 166.311 18.1025 166.476C18.1025 166.657 18.1396 166.812 18.2138 166.94C18.288 167.068 18.4055 167.179 18.5663 167.274C18.7312 167.369 18.9435 167.459 19.2032 167.546ZM27.6503 167.348C28.2316 167.348 28.7428 167.453 29.1839 167.663C29.6292 167.87 29.9754 168.175 30.2228 168.579C30.4702 168.978 30.5938 169.469 30.5938 170.05C30.5938 170.685 30.4598 171.233 30.1919 171.695C29.9239 172.153 29.5302 172.505 29.0108 172.753C28.4913 173 27.8585 173.124 27.1124 173.124C26.6383 173.124 26.1951 173.082 25.7828 173C25.3747 172.918 25.0222 172.794 24.7254 172.629V171.318C25.0346 171.491 25.4056 171.633 25.8385 171.745C26.2714 171.852 26.6857 171.905 27.0814 171.905C27.5019 171.905 27.8627 171.844 28.1636 171.72C28.4645 171.596 28.6954 171.407 28.8562 171.151C29.0211 170.895 29.1035 170.572 29.1035 170.18C29.1035 169.661 28.9366 169.261 28.6026 168.981C28.2728 168.696 27.7555 168.554 27.0505 168.554C26.8032 168.554 26.5393 168.577 26.259 168.622C25.9828 168.663 25.7519 168.708 25.5664 168.758L24.9295 168.381L25.2696 163.959H29.9693V165.239H26.5496L26.3517 167.49C26.5002 167.457 26.6774 167.426 26.8836 167.397C27.0897 167.364 27.3453 167.348 27.6503 167.348ZM38.707 168.473C38.707 169.203 38.6493 169.857 38.5339 170.434C38.4226 171.007 38.2453 171.493 38.0021 171.893C37.7589 172.293 37.4414 172.598 37.0498 172.808C36.6581 173.019 36.1841 173.124 35.6275 173.124C34.9308 173.124 34.3557 172.94 33.9022 172.573C33.4488 172.202 33.1128 171.67 32.8943 170.978C32.6758 170.281 32.5665 169.446 32.5665 168.473C32.5665 167.501 32.6655 166.668 32.8634 165.975C33.0654 165.278 33.391 164.745 33.8404 164.374C34.2897 164.003 34.8855 163.817 35.6275 163.817C36.3283 163.817 36.9055 164.003 37.359 164.374C37.8166 164.741 38.1546 165.272 38.3731 165.969C38.5957 166.662 38.707 167.496 38.707 168.473ZM34.0321 168.473C34.0321 169.236 34.0816 169.873 34.1805 170.384C34.2836 170.895 34.4526 171.279 34.6876 171.534C34.9226 171.786 35.2359 171.912 35.6275 171.912C36.0191 171.912 36.3325 171.786 36.5674 171.534C36.8024 171.283 36.9715 170.902 37.0745 170.39C37.1817 169.879 37.2353 169.24 37.2353 168.473C37.2353 167.715 37.1838 167.08 37.0807 166.569C36.9776 166.058 36.8086 165.674 36.5736 165.419C36.3386 165.159 36.0233 165.029 35.6275 165.029C35.2317 165.029 34.9164 165.159 34.6814 165.419C34.4505 165.674 34.2836 166.058 34.1805 166.569C34.0816 167.08 34.0321 167.715 34.0321 168.473Z" fill="#929292"/>
<path d="M19.2032 209.736V208.462C18.692 208.454 18.22 208.408 17.7871 208.326C17.3584 208.239 16.9873 208.128 16.674 207.992V206.675C16.9915 206.823 17.3831 206.957 17.849 207.077C18.3148 207.196 18.7662 207.264 19.2032 207.281V204.962C18.6054 204.76 18.119 204.55 17.7438 204.331C17.3728 204.113 17.1007 203.859 16.9276 203.571C16.7544 203.278 16.6679 202.928 16.6679 202.519C16.6679 202.099 16.773 201.738 16.9832 201.437C17.1976 201.132 17.4944 200.891 17.8737 200.714C18.2571 200.536 18.7003 200.431 19.2032 200.398V199.39H20.0071V200.38C20.4647 200.392 20.8873 200.444 21.2748 200.534C21.6664 200.621 22.0395 200.743 22.394 200.899L21.9426 202.049C21.6334 201.926 21.3119 201.825 20.978 201.746C20.644 201.668 20.3204 201.614 20.0071 201.586V203.849C20.51 204.014 20.9573 204.191 21.349 204.381C21.7447 204.57 22.0539 204.809 22.2766 205.098C22.5033 205.382 22.6167 205.756 22.6167 206.217C22.6167 206.823 22.394 207.324 21.9488 207.72C21.5036 208.112 20.8563 208.347 20.0071 208.425V209.736H19.2032ZM20.0071 207.231C20.4029 207.182 20.6976 207.079 20.8914 206.922C21.0851 206.761 21.182 206.553 21.182 206.298C21.182 206.125 21.1408 205.978 21.0583 205.859C20.98 205.739 20.8543 205.632 20.6811 205.537C20.5121 205.442 20.2874 205.349 20.0071 205.259V207.231ZM19.2032 203.546V201.61C18.9641 201.635 18.7621 201.685 18.5972 201.759C18.4323 201.833 18.3086 201.93 18.2262 202.049C18.1437 202.169 18.1025 202.311 18.1025 202.476C18.1025 202.657 18.1396 202.812 18.2138 202.94C18.288 203.068 18.4055 203.179 18.5663 203.274C18.7312 203.369 18.9435 203.459 19.2032 203.546ZM30.699 204.473C30.699 205.203 30.6412 205.857 30.5258 206.434C30.4145 207.007 30.2372 207.493 29.994 207.893C29.7508 208.293 29.4333 208.598 29.0417 208.808C28.6501 209.019 28.176 209.124 27.6194 209.124C26.9227 209.124 26.3476 208.94 25.8941 208.573C25.4407 208.202 25.1047 207.67 24.8862 206.978C24.6677 206.281 24.5584 205.446 24.5584 204.473C24.5584 203.501 24.6574 202.668 24.8553 201.975C25.0573 201.278 25.3829 200.745 25.8323 200.374C26.2817 200.003 26.8774 199.817 27.6194 199.817C28.3203 199.817 28.8974 200.003 29.3509 200.374C29.8085 200.741 30.1465 201.272 30.365 201.969C30.5876 202.662 30.699 203.496 30.699 204.473ZM26.024 204.473C26.024 205.236 26.0735 205.873 26.1724 206.384C26.2755 206.895 26.4445 207.279 26.6795 207.534C26.9145 207.786 27.2278 207.912 27.6194 207.912C28.0111 207.912 28.3244 207.786 28.5594 207.534C28.7943 207.283 28.9634 206.902 29.0664 206.39C29.1736 205.879 29.2272 205.24 29.2272 204.473C29.2272 203.715 29.1757 203.08 29.0726 202.569C28.9696 202.058 28.8005 201.674 28.5655 201.419C28.3306 201.159 28.0152 201.029 27.6194 201.029C27.2237 201.029 26.9083 201.159 26.6733 201.419C26.4424 201.674 26.2755 202.058 26.1724 202.569C26.0735 203.08 26.024 203.715 26.024 204.473Z" fill="#929292"/>
<path d="M71 61H414" stroke="#D9D9D9"/>
<path d="M71 25H414" stroke="#D9D9D9"/>
<path d="M71 96.5H414" stroke="#D9D9D9"/>
<path d="M71 132H414" stroke="#D9D9D9"/>
<path d="M71 168H414" stroke="#D9D9D9"/>
<path d="M71 204H414" stroke="#D9D9D9"/>
<rect x="71" y="174.5" width="12" height="5" fill="#0AA11D"/>
<rect x="77" y="171.5" width="1" height="3" fill="#0AA11D"/>
<rect x="86" y="175.5" width="12" height="2" fill="#E20D0D"/>
<rect x="92" y="172.5" width="1" height="3" fill="#E20D0D"/>
<rect x="116.999" y="175.5" width="12" height="3" fill="#E20D0D"/>
<rect x="123.249" y="174.75" width="0.5" height="0.5" fill="#E20D0D" stroke="#E20D0D" stroke-width="0.5"/>
<rect x="131.999" y="176.5" width="12" height="1" fill="#E20D0D"/>
<rect x="137.999" y="175.5" width="1" height="1" fill="#E20D0D"/>
<rect x="176" y="179.5" width="12" height="2" fill="#E20D0D"/>
<rect x="182.25" y="178.75" width="0.5" height="0.5" fill="#E20D0D" stroke="#E20D0D" stroke-width="0.5"/>
<rect x="102" y="174.5" width="7" height="2" fill="#E20D0D"/>
<rect x="105.25" y="173.75" width="0.5" height="2.5" fill="#E20D0D" stroke="#E20D0D" stroke-width="0.5"/>
<rect x="192" y="180.5" width="12" height="2" fill="#E20D0D"/>
<rect x="198.25" y="179.75" width="0.5" height="2.5" fill="#E20D0D" stroke="#E20D0D" stroke-width="0.5"/>
<rect x="253" y="173.5" width="12" height="2" fill="#0AA11D"/>
<rect x="259" y="169.5" width="1" height="7" fill="#0AA11D"/>
<rect width="12" height="2" transform="matrix(1 0 0 -1 268 173.5)" fill="#0AA11D"/>
<rect width="1" height="7" transform="matrix(1 0 0 -1 274 176.5)" fill="#0AA11D"/>
<rect width="12" height="4" transform="matrix(1 0 0 -1 282.001 169.5)" fill="#0AA11D"/>
<rect width="1" height="9" transform="matrix(1 0 0 -1 288.001 172.5)" fill="#0AA11D"/>
<rect x="207" y="181.5" width="12" height="4" fill="#E20D0D"/>
<rect x="213.25" y="179.75" width="0.5" height="7.5" fill="#E20D0D" stroke="#E20D0D" stroke-width="0.5"/>
<rect x="328" y="90.5" width="12" height="7" fill="#E20D0D"/>
<rect x="334" y="76.5" width="1" height="26" fill="#E20D0D"/>
<rect x="358" y="57.5" width="12" height="6" fill="#E20D0D"/>
<rect x="364.25" y="42.75" width="0.5" height="25.5" fill="#E20D0D" stroke="#E20D0D" stroke-width="0.5"/>
<rect x="145.999" y="179.5" width="12" height="1" fill="#0AA11D"/>
<rect x="151.999" y="179.5" width="1" height="6" fill="#0AA11D"/>
<rect x="161" y="175.5" width="12" height="5" fill="#0AA11D"/>
<rect x="167" y="175.5" width="1" height="7" fill="#0AA11D"/>
<rect x="222" y="181.5" width="12" height="7" fill="#0AA11D"/>
<rect x="228.25" y="177.75" width="0.5" height="7.5" fill="#0AA11D" stroke="#0AA11D" stroke-width="0.5"/>
<rect width="12" height="7" transform="matrix(1 0 0 -1 237 182.5)" fill="#0AA11D"/>
<rect width="1" height="1" transform="matrix(1 0 0 -1 243 183.5)" fill="#0AA11D"/>
<rect width="12" height="12" transform="matrix(1 0 0 -1 297 166.5)" fill="#0AA11D"/>
<rect width="1" height="3" transform="matrix(1 0 0 -1 303 169.5)" fill="#0AA11D"/>
<rect width="1" height="4" transform="matrix(1 0 0 -1 303 154.5)" fill="#0AA11D"/>
<rect width="12" height="56" transform="matrix(1 0 0 -1 312 149.5)" fill="#0AA11D"/>
<rect width="1" height="3" transform="matrix(1 0 0 -1 318 93.5)" fill="#0AA11D"/>
<rect width="12" height="23" transform="matrix(1 0 0 -1 373.001 66.5)" fill="#0AA11D"/>
<rect width="1" height="3" transform="matrix(1 0 0 -1 379.001 43.5)" fill="#0AA11D"/>
<rect width="12" height="1" transform="matrix(1 0 0 -1 387 40.5)" fill="#0AA11D"/>
<rect width="1" height="22" transform="matrix(1 0 0 -1 393 57.5)" fill="#0AA11D"/>
<rect width="12" height="9" transform="matrix(1 0 0 -1 402 38.5)" fill="#0AA11D"/>
<rect width="1" height="18" transform="matrix(1 0 0 -1 408 42.5)" fill="#0AA11D"/>
<rect x="343" y="67.5" width="12" height="33" fill="#0AA11D"/>
<rect x="349" y="100.5" width="1" height="4" fill="#0AA11D"/>
</svg>
